<svg version="1.1" id="Layer_1" xmlns="http://www.w3.org/2000/svg" xmlns:xlink="http://www.w3.org/1999/xlink" x="0px" y="0px"
	 width="100%" viewBox="0 0 1005 591" enable-background="new 0 0 1005 591" xml:space="preserve">
<path fill="#FFFFFF" opacity="1.000000" stroke="none" 
	d="
M657.000000,592.000000 
	C438.000000,592.000000 219.500000,592.000000 1.000000,592.000000 
	C1.000000,395.000000 1.000000,198.000000 1.000000,1.000000 
	C336.000000,1.000000 671.000000,1.000000 1006.000000,1.000000 
	C1006.000000,198.000000 1006.000000,395.000000 1006.000000,592.000000 
	C889.833313,592.000000 773.666687,592.000000 657.000000,592.000000 
M786.525757,368.783112 
	C787.020813,368.520050 787.515930,368.256958 788.439087,368.512238 
	C789.288269,367.674011 790.137451,366.835785 791.777649,366.020538 
	C794.949280,366.590881 798.120972,367.161224 801.066345,367.788513 
	C801.066345,367.788513 801.271545,367.677460 801.113342,368.441437 
	C801.556763,373.185516 802.000183,377.929596 802.485352,383.120514 
	C805.115967,382.895996 807.274292,382.711792 809.432678,382.527588 
	C809.400818,382.232452 809.368958,381.937286 809.337158,381.642120 
	C807.969788,381.132324 806.602478,380.622528 805.235168,380.112732 
	C805.271362,379.640839 805.307495,379.168915 805.343689,378.697021 
	C808.664246,379.458344 811.385193,374.401917 814.882629,378.390839 
	C816.867432,377.906799 818.768005,377.570709 820.574768,376.958160 
	C821.785950,376.547546 822.864075,375.744720 824.886108,374.968811 
	C827.554504,375.113068 830.222900,375.257324 832.468445,375.784027 
	C831.528076,377.809540 830.617920,379.103607 827.717590,379.179443 
	C822.640259,379.312286 817.591736,380.545746 812.531189,381.318024 
	C812.583801,381.654938 812.636475,381.991852 812.689148,382.328766 
	C820.949402,383.054779 829.209717,383.780792 837.892822,384.543976 
	C837.083801,382.249512 836.633850,380.973297 836.447388,380.444458 
	C840.570801,378.734619 844.267090,377.205475 847.960388,375.669250 
	C851.047058,374.385376 853.183350,375.342987 854.824585,378.421906 
	C853.126038,378.859802 851.784058,379.205780 849.519958,379.789520 
	C852.739563,382.109985 855.143799,383.842743 858.502014,386.263092 
	C858.351257,382.816345 858.282410,381.242615 858.202576,379.417084 
	C860.432373,379.158264 862.360046,378.934540 863.367493,378.817596 
	C864.752014,374.820648 865.015991,370.214813 867.427917,368.262390 
	C869.509033,366.577759 874.034424,367.912720 877.479248,367.912720 
	C878.119263,367.415710 878.759277,366.918701 879.399292,366.421692 
	C878.017212,365.957336 876.512390,365.696533 875.293396,364.961609 
	C874.381775,364.411957 873.838745,363.250946 873.131531,362.362183 
	C874.233826,361.597870 875.246765,360.568848 876.467834,360.156830 
	C877.369507,359.852600 878.542664,360.352936 879.150146,360.434845 
	C879.784302,355.342773 880.450867,350.698883 880.876404,346.032959 
	C880.972351,344.980743 880.228577,343.851929 879.818420,342.119659 
	C879.970276,341.723969 880.122192,341.328308 880.706665,340.427948 
	C880.756714,339.766205 880.806824,339.104462 880.654419,337.592560 
	C880.722839,331.228363 880.791260,324.864136 880.927307,317.845306 
	C880.724854,317.255707 880.522400,316.666107 879.990112,315.393066 
	C879.868225,314.647766 879.746338,313.902466 880.326355,312.665039 
	C879.879272,307.524597 879.657654,302.352081 878.931885,297.251282 
	C877.861511,289.727631 877.708679,289.752075 870.339050,289.994843 
	C869.184387,290.032898 868.028442,290.033661 866.340820,289.853699 
	C865.871033,289.289124 865.401245,288.724548 864.965942,287.351135 
	C863.921997,283.566711 861.022339,279.819458 864.737366,275.939697 
	C863.715393,275.171112 862.731323,273.811676 861.664368,273.743256 
	C858.276550,273.526031 854.814148,274.127258 851.473877,273.693298 
	C850.232910,273.532104 848.082458,270.967438 848.351196,270.209351 
	C849.544250,266.843750 847.260803,266.221222 845.258179,265.053345 
	C844.440125,264.576263 843.884338,263.649445 842.781921,262.470123 
	C846.012817,262.299530 848.425781,261.893127 850.785583,262.098145 
	C858.944336,262.806946 867.126648,263.453064 875.214783,264.683228 
	C879.395508,265.319153 880.537048,264.659729 880.074097,259.036713 
	C879.649841,253.573990 879.692993,248.025055 878.704346,242.666443 
	C876.631592,231.430542 871.442993,221.870209 860.995850,216.309799 
	C835.608276,202.797455 804.104370,210.283997 787.215515,232.848297 
	C786.493408,228.898422 785.771301,224.948532 784.860718,220.158798 
	C784.943237,218.446274 785.025696,216.733734 785.773438,214.901459 
	C787.568787,213.246643 787.177551,212.347885 784.909119,212.106186 
	C784.909119,212.106186 784.884827,212.199951 784.750732,211.521057 
	C783.583374,211.009369 782.430969,210.093018 781.246338,210.049332 
	C770.796997,209.663895 760.339539,209.499557 749.890198,209.114212 
	C747.034424,209.008881 745.867737,210.135742 746.044556,212.953720 
	C746.044556,212.953720 745.963013,213.023163 745.230408,212.976059 
	C744.012512,212.170227 742.794556,211.364380 741.576660,210.558533 
	C741.116699,210.816437 740.656738,211.074356 740.196777,211.332260 
	C741.348145,213.513992 742.562866,215.665512 743.623779,217.890411 
	C744.142334,218.977844 744.692688,220.207123 744.673340,221.362915 
	C744.626404,224.162842 744.048645,226.956970 744.043762,229.754059 
	C743.992981,259.077606 744.025879,288.401245 743.999817,317.724884 
	C743.995789,322.311066 744.823792,327.040680 741.579224,331.124115 
	C740.968567,331.892639 740.790222,333.525024 741.159973,334.464478 
	C743.012146,339.170898 740.377319,341.469604 735.745483,342.956207 
	C736.499084,341.189117 737.252686,339.422058 737.574402,338.667847 
	C736.525452,336.326843 735.081604,334.607483 735.085205,332.891205 
	C735.161438,296.765747 735.408325,260.640656 735.557983,224.515213 
	C735.561035,223.777054 734.806641,223.035751 734.405579,222.295914 
	C733.186035,224.311249 733.026428,226.174713 733.025635,228.038223 
	C733.010620,262.860046 733.001282,297.681854 733.038330,332.503632 
	C733.041443,335.450867 733.273132,338.326965 729.046570,338.078918 
	C729.046570,338.078918 729.271851,337.758087 729.722961,336.782776 
	C729.814453,334.627686 729.984802,332.472626 729.985718,330.317505 
	C730.000366,294.565948 730.028137,258.814331 729.938965,223.063019 
	C729.929993,219.476303 729.906128,216.370407 734.541748,216.484634 
	C734.541748,213.961945 734.541748,211.786423 734.541748,210.123169 
	C732.159424,210.814072 730.092285,211.413574 727.525452,211.988892 
	C727.360901,211.961777 727.196350,211.934677 727.044067,211.486618 
	C727.044067,211.486618 726.967712,211.072479 726.900391,210.386353 
	C725.407898,208.381927 724.483704,208.766846 723.078613,211.137100 
	C714.054443,211.089386 705.030334,211.041687 695.978027,210.490021 
	C695.819214,210.223160 695.660400,209.956299 695.501587,209.689438 
	C695.330872,210.120148 695.160217,210.550858 694.173157,211.076492 
	C692.805481,211.123978 691.437744,211.171448 689.946838,210.508286 
	C689.093018,210.244431 688.239136,209.980591 687.385315,209.716751 
	C687.906860,210.474762 688.428406,211.232758 688.903931,212.855774 
	C689.044373,214.279861 689.184814,215.703949 689.248169,217.579849 
	C689.248169,217.579849 689.042786,217.989609 688.447754,218.515152 
	C687.929016,222.303757 687.410278,226.092377 686.891479,229.881653 
	C685.431152,229.978424 684.123413,230.065094 682.808533,230.085968 
	C682.808533,230.085968 682.850220,230.136963 682.953796,229.387741 
	C683.067993,227.271591 683.182190,225.155457 683.299194,222.987244 
	C682.180481,222.490387 680.569214,222.007477 679.213684,221.129562 
	C674.956848,218.372604 671.101990,214.717865 666.507080,212.842819 
	C662.417358,211.173920 657.549255,211.412231 652.350464,210.858017 
	C651.916504,210.749176 651.482483,210.640335 650.839722,209.938934 
	C649.558167,209.953278 648.276611,209.967636 646.324768,210.077789 
	C645.879517,210.015793 645.434265,209.953796 644.513428,209.392593 
	C643.013794,209.553909 641.514099,209.715225 639.219788,210.016846 
	C638.146362,210.001770 637.072937,209.986694 635.481506,209.422287 
	C632.990417,209.887268 630.499390,210.352249 627.275818,210.985199 
	C626.525513,211.011444 625.775208,211.037674 624.541321,210.481049 
	C623.026489,210.330536 621.511658,210.180023 619.486328,209.454971 
	C616.768127,209.759537 614.020020,209.921158 611.355042,210.479523 
	C610.764771,210.603180 610.468323,212.128571 609.953369,213.709076 
	C609.655762,214.835037 609.358154,215.960999 608.995239,217.015594 
	C608.995239,217.015594 609.077820,217.065689 608.382874,217.007889 
	C607.918579,216.995605 607.454285,216.983322 606.982971,216.225037 
	C605.538330,212.920059 600.004272,209.301971 597.196289,210.624588 
	C593.206604,212.503830 590.244324,210.388474 586.675720,209.835663 
	C579.299072,208.692978 571.568726,209.833374 563.238647,210.175537 
	C562.496399,210.056854 561.754089,209.938171 560.826538,209.098053 
	C559.306091,208.770676 557.466370,207.727676 556.320068,208.239014 
	C551.184387,210.529953 546.260010,211.412994 540.945984,207.498428 
	C542.633362,202.733734 537.657410,196.259109 544.744141,191.639999 
	C539.066650,188.154449 547.399658,180.956146 540.727539,176.126724 
	C540.133057,179.526260 539.757874,181.671799 539.382690,183.817337 
	C538.826782,183.944916 538.270874,184.072495 537.714905,184.200073 
	C537.137695,182.653030 536.700745,181.031677 535.934326,179.584854 
	C535.415894,178.606018 534.433838,177.872711 533.659119,177.029572 
	C532.962585,177.782730 532.380554,178.722794 531.538635,179.238358 
	C530.631836,179.793594 529.378723,180.400543 528.458435,180.190079 
	C526.430908,179.726364 524.537964,178.176254 522.554138,178.107407 
	C515.065552,177.847488 507.560516,178.108612 500.066101,177.955780 
	C496.545746,177.883987 493.035583,177.314362 489.520782,176.970337 
	C489.260345,177.412262 488.999908,177.854187 488.739471,178.296097 
	C489.960114,179.977097 491.180756,181.658081 491.899841,182.648361 
	C490.896545,189.825317 489.159454,196.596481 489.128448,203.375458 
	C488.896729,254.024338 488.994965,304.674774 489.011383,355.324707 
	C489.013580,362.161407 488.031738,369.069946 493.321106,374.987396 
	C495.327362,377.231873 496.675903,379.115967 500.008179,379.057983 
	C509.668732,378.890045 519.334106,378.998688 529.000000,379.000000 
	C529.000000,379.000000 529.002441,379.001221 529.016296,379.769562 
	C530.022217,380.781708 530.861511,382.287201 532.071289,382.696014 
	C534.137024,383.394104 536.435242,383.404388 538.635803,383.703552 
	C538.899170,384.226837 539.162598,384.750122 539.426025,385.273407 
	C540.804138,382.568176 542.182190,379.862915 542.910461,378.433350 
	C549.183228,379.143860 554.904907,381.167572 559.926697,380.049103 
	C568.143372,378.219086 574.970459,378.573914 579.850403,383.811890 
	C582.073059,378.882874 584.135864,378.136322 590.301025,379.383575 
	C592.255859,381.721710 593.624268,383.358429 595.795288,384.998718 
	C596.865173,384.998322 597.934998,384.997955 599.940308,384.996948 
	C605.408325,384.996948 610.876282,384.996948 617.380005,384.996948 
	C614.101990,381.169983 608.292664,385.536682 606.712891,379.454712 
	C611.547974,379.843994 616.616150,378.740417 619.082397,380.781219 
	C623.523682,384.456299 625.193359,382.548553 626.698181,379.737305 
	C633.139282,381.588806 639.066528,383.292572 645.851440,384.999115 
	C647.626099,385.191010 649.419373,385.279938 651.171692,385.595673 
	C655.140259,386.310699 657.856934,385.030823 659.925842,380.998688 
	C664.276917,381.452576 668.922852,381.095978 672.911011,382.547119 
	C679.153564,384.818634 683.725830,384.153473 688.172241,378.926208 
	C689.290405,377.611725 691.135620,376.929596 692.597595,375.888000 
	C693.339417,375.359467 694.579102,374.614105 694.523071,374.078918 
	C694.418457,373.079803 693.744507,371.707520 692.919434,371.322906 
	C691.811340,370.806335 690.335205,371.079010 688.941895,370.406677 
	C688.380127,369.924316 687.818298,369.441986 687.139038,368.038696 
	C687.195618,363.041870 687.252136,358.045044 688.041443,353.056824 
	C688.945557,354.270752 690.402405,355.375427 690.667358,356.715668 
	C693.013550,368.584961 700.089111,375.284546 712.019470,377.091431 
	C713.131775,377.259857 714.022705,378.591644 715.131226,379.158936 
	C716.499634,379.859161 717.976807,380.652039 719.431458,380.703064 
	C719.903503,380.719604 720.452881,378.528595 721.141052,376.947021 
	C726.700500,376.947021 732.486023,376.947021 737.652954,376.947021 
	C738.782593,374.324860 739.683960,372.232422 740.562561,370.192871 
	C741.429443,370.469971 741.917603,370.478424 742.017883,370.679932 
	C744.021851,374.706299 746.690369,377.262299 751.628296,375.445709 
	C752.121582,375.264282 752.891174,375.760956 753.509094,376.002686 
	C762.521240,379.528625 771.902222,379.008209 780.096680,378.927063 
	C782.194641,376.286591 783.549255,374.581726 784.964417,372.941132 
	C784.964417,372.941132 784.876587,372.950592 785.480591,372.553711 
	C785.656189,371.368744 785.831726,370.183746 786.525757,368.783112 
M288.012085,232.165710 
	C288.621765,227.123795 285.924042,221.464050 291.501740,217.123993 
	C289.798431,215.261047 288.342987,213.669159 286.925476,212.137634 
	C286.925476,212.137634 286.856262,212.154678 286.948456,211.371216 
	C286.108154,210.717682 285.275726,209.507172 284.426392,209.495178 
	C273.737976,209.344467 263.045898,209.289948 252.358673,209.458542 
	C251.233994,209.476288 250.134171,211.069351 248.998215,212.029251 
	C248.998215,212.029251 248.899017,212.011871 248.202118,212.026138 
	C246.910629,212.612869 245.619156,213.199600 245.549408,213.231277 
	C245.971405,217.452667 246.642761,220.861923 246.568588,224.254868 
	C246.473740,228.592865 245.525116,232.913116 245.445816,237.250183 
	C245.405334,239.463989 246.958679,241.701202 246.943604,243.922058 
	C246.742905,273.514404 246.403778,303.105896 246.042313,332.696899 
	C246.024551,334.150848 245.689087,335.680786 245.145523,337.032104 
	C243.969620,339.955444 242.741135,343.142731 238.931351,339.291718 
	C238.499710,338.855377 237.162384,338.836792 236.522903,339.165375 
	C233.408051,340.765778 232.597748,338.539673 232.077087,336.417358 
	C231.690491,334.841461 231.922699,333.107513 231.922607,331.443970 
	C231.920822,293.493927 231.935211,255.543869 231.898895,217.593872 
	C231.897034,215.634796 231.876389,213.493301 231.103241,211.780319 
	C230.570877,210.600800 228.724457,209.282608 227.461563,209.278824 
	C216.041824,209.244522 204.620636,209.461823 193.203384,209.746201 
	C192.781494,209.756714 192.395615,211.213669 191.803207,212.629776 
	C191.663177,213.046692 191.523148,213.463623 190.733078,214.257217 
	C190.513702,219.179321 190.449356,224.115677 189.998947,229.016541 
	C189.817657,230.988998 188.789902,232.883682 187.643555,234.293625 
	C184.175354,225.408203 178.490555,218.559616 169.486526,214.894333 
	C150.888092,207.323395 132.493240,207.860062 114.592834,216.982697 
	C107.622711,220.534897 102.405991,226.133698 99.158295,233.391312 
	C93.376442,246.312012 94.442101,272.897400 110.406227,285.663574 
	C119.881874,293.241028 129.328064,300.863678 139.002823,308.181335 
	C148.239822,315.167938 153.025253,323.957001 151.535736,335.705353 
	C150.806732,341.455292 148.312088,344.056000 143.604706,344.074799 
	C138.873993,344.093689 135.962006,341.465302 135.181076,335.987305 
	C134.784393,333.204620 134.925598,330.339447 134.901505,327.510895 
	C134.863602,323.059540 134.891418,318.607635 134.891418,314.082397 
	C121.443962,314.082397 108.730721,314.082397 95.842369,314.082397 
	C95.842369,321.272858 95.330231,328.118073 95.942245,334.861298 
	C97.524330,352.292664 104.634453,366.258270 122.354744,372.279938 
	C133.937805,376.216034 145.962280,376.243561 157.879593,374.120972 
	C169.861618,371.986816 179.534058,365.891235 185.949936,355.321014 
	C187.916245,352.081512 189.302048,348.489655 191.654053,345.869995 
	C192.158554,347.601959 192.806534,349.306366 193.144913,351.070190 
	C195.907104,365.468628 202.872330,373.086395 215.734253,374.797821 
	C228.146912,376.449524 239.595901,375.199249 245.812149,361.966980 
	C246.018494,361.527771 246.764542,361.342102 248.017303,360.572235 
	C248.017303,365.206238 248.017303,369.090118 248.017303,372.792908 
	C249.016800,373.204224 249.468872,373.551056 249.922791,373.553528 
	C261.251160,373.614960 272.579987,373.607697 283.908112,373.693542 
	C286.854614,373.715881 286.909119,371.937805 286.921936,369.737396 
	C286.982086,359.415680 287.139252,349.094513 287.682343,339.753326 
	C287.988617,341.049286 288.316284,342.340637 288.597809,343.641968 
	C291.474548,356.939941 298.757660,367.023621 311.782745,371.303192 
	C319.372559,373.796967 327.708618,374.922943 335.729706,375.024567 
	C356.628235,375.289429 372.967072,367.443390 381.119629,347.370941 
	C382.937347,352.520508 384.375763,357.844147 386.643890,362.787048 
	C393.454773,377.630066 422.393738,380.582947 431.509369,365.093140 
	C432.797211,362.904785 434.172485,360.767883 436.277557,357.360229 
	C436.277557,362.175659 436.571381,365.510651 436.204163,368.771210 
	C435.731842,372.964996 437.552124,373.911163 441.336121,373.810852 
	C449.320831,373.599243 457.315277,373.694000 465.305084,373.750549 
	C474.959778,373.818878 474.957916,373.858093 474.954376,363.989349 
	C474.940704,325.701447 475.009949,287.413269 474.875763,249.125793 
	C474.820587,233.385468 467.763733,221.762543 453.403778,214.858414 
	C441.830139,209.293930 429.632385,209.375153 417.252930,210.783905 
	C401.106598,212.621353 388.712433,219.314178 383.204956,236.195663 
	C382.609009,237.441025 382.013092,238.686371 381.360504,240.050125 
	C379.993225,236.463165 383.229492,231.053528 376.563171,229.905945 
	C376.563171,229.905945 376.568787,229.638046 376.821808,228.763916 
	C377.992462,222.813995 373.572632,218.577225 369.913788,216.964508 
	C364.714325,214.672745 359.550446,210.359161 352.215118,211.913773 
	C351.445221,211.707733 350.675293,211.501709 349.593353,211.068558 
	C349.336456,210.966583 349.085388,210.979385 348.007111,211.123871 
	C339.038513,211.102768 330.069946,211.081650 320.529358,210.957535 
	C320.026398,211.185089 319.523468,211.412643 318.385254,211.899307 
	C317.934692,211.970657 317.484100,212.042023 316.539764,211.518448 
	C310.453827,210.578659 306.626678,212.432358 304.685028,217.588577 
	C303.802521,218.102051 302.920013,218.615524 301.728333,218.468246 
	C300.303345,218.201859 297.693939,217.532089 297.627106,217.728271 
	C296.074615,222.286591 290.515747,224.968399 291.373901,231.122513 
	C291.264313,231.425781 291.102173,231.697723 290.457306,231.652893 
	C289.651367,232.136902 288.845398,232.620911 288.012085,232.165710 
z"/>
<path fill="#EA6A0E" opacity="1.000000" stroke="none" 
	d="
M561.011841,209.819504 
	C561.754089,209.938171 562.496399,210.056854 563.928223,210.311813 
	C574.086426,211.773926 582.063965,215.357910 585.830139,224.816025 
	C584.833374,226.064423 584.003967,227.154282 583.680237,228.377914 
	C582.959290,231.102692 582.664612,233.945602 581.867615,236.643280 
	C581.176392,238.982635 579.618958,241.114288 579.197144,243.472412 
	C578.704956,246.223953 578.235901,249.494949 582.102173,250.616806 
	C583.190735,246.040497 584.218933,241.718094 585.267456,237.310242 
	C586.826111,237.877625 587.651855,238.178207 589.075623,238.696487 
	C588.057495,233.636459 587.165344,229.202362 586.595093,224.924042 
	C588.639893,230.406174 590.362793,235.732513 592.002808,241.491684 
	C592.091187,244.254608 592.262451,246.584717 592.390381,249.311310 
	C592.388733,250.502441 592.430542,251.297104 592.313171,252.444962 
	C592.276428,254.583298 592.398804,256.368408 592.521790,258.381042 
	C592.522461,258.608582 592.749878,259.002716 592.647217,259.251190 
	C592.545593,259.678925 592.546570,259.858154 592.378052,260.341431 
	C592.332458,262.739899 592.456238,264.834259 592.566528,267.388916 
	C592.560974,270.920593 592.568909,273.991913 592.387695,277.405518 
	C592.319641,283.813599 592.440796,289.879456 592.547180,296.354462 
	C592.540771,297.855103 592.549072,298.946564 592.386841,300.279846 
	C592.325439,301.683044 592.434570,302.844391 592.506226,304.344116 
	C592.446167,305.135590 592.423645,305.588715 592.232910,306.394348 
	C592.064270,324.571198 592.052429,342.395630 592.096375,360.219879 
	C592.098694,361.134216 592.579834,362.047363 592.738281,363.366089 
	C592.583069,366.889435 592.527527,370.007751 592.305298,373.130798 
	C592.138550,373.135529 592.019531,373.447083 591.555420,373.382385 
	C580.593689,373.338562 570.089355,373.146606 559.601624,373.478973 
	C555.039124,373.623566 553.685120,372.343811 553.709656,367.652893 
	C553.908752,329.660187 553.873352,291.665833 553.749939,253.672485 
	C553.739502,250.442123 553.347656,246.724442 551.708252,244.135345 
	C550.278320,241.877182 546.852173,239.725998 544.278381,239.690781 
	C541.936462,239.658722 538.604675,242.033325 537.426453,244.256958 
	C535.887024,247.162155 535.547241,250.961411 535.536682,254.378632 
	C535.421021,291.871918 535.474182,329.365753 535.470581,366.859436 
	C535.469971,373.396698 535.446716,373.405487 528.800537,373.411926 
	C519.968689,373.420441 511.136780,373.417053 502.304901,373.412170 
	C495.941284,373.408630 495.890045,373.403748 495.890808,366.795807 
	C495.897675,307.305786 495.921539,247.815781 495.956421,188.325775 
	C495.957428,186.576782 496.134735,184.827896 496.244843,182.802826 
	C506.029175,182.802826 515.183960,182.805069 524.338684,182.802261 
	C535.879578,182.798737 535.762390,182.794907 535.553833,194.615601 
	C535.378479,204.553116 535.517822,214.496170 535.517822,224.436783 
	C541.478455,214.427628 549.883789,209.815186 561.011841,209.819504 
M556.004883,293.500000 
	C556.004761,317.471375 555.978271,341.442810 556.061096,365.413910 
	C556.066956,367.100616 556.463440,369.948883 557.385620,370.278595 
	C562.879883,372.242859 568.600159,372.618073 574.301086,370.768951 
	C571.424255,369.996460 568.524780,370.055450 565.628601,369.984131 
	C559.670410,369.837372 559.005859,369.162628 559.004944,363.412933 
	C558.999207,327.622345 558.989868,291.831787 559.023682,256.041229 
	C559.026062,253.532471 559.366699,251.024033 559.550049,248.515457 
	C559.016602,248.391357 558.483093,248.267242 557.949646,248.143143 
	C557.300903,250.776611 556.135559,253.401566 556.091919,256.045013 
	C555.891541,268.193848 556.004395,280.347839 556.004883,293.500000 
M578.997559,287.498077 
	C578.997559,305.640533 578.997559,305.640533 582.948120,307.547729 
	C582.948120,290.587524 582.948120,273.544159 582.948120,256.500763 
	C582.276794,256.350006 581.605469,256.199249 580.934143,256.048492 
	C580.288757,257.712067 579.123413,259.363922 579.085693,261.041138 
	C578.895081,269.523438 578.997742,278.012329 578.997559,287.498077 
M583.002380,327.632202 
	C582.303833,335.247681 581.605530,342.863159 580.905334,350.478485 
	C580.890259,350.642883 580.846069,350.804474 580.828552,350.968781 
	C580.225708,356.625732 579.318665,362.273041 579.135742,367.943634 
	C579.022949,371.440186 581.180054,372.881653 584.700256,371.287567 
	C584.094299,369.101318 582.970459,367.091217 583.095886,365.162354 
	C583.833130,353.825928 584.936462,342.513733 585.745422,331.181183 
	C585.980530,327.887787 586.994080,324.282043 584.795532,321.399811 
	C584.197815,321.458923 583.600159,321.518036 583.002441,321.577148 
	C583.002441,323.291473 583.002441,325.005829 583.002380,327.632202 
M578.802002,227.422577 
	C575.096558,231.906921 575.065857,232.597778 578.452393,235.333282 
	C579.213928,233.030594 580.060486,230.749298 580.650879,228.403534 
	C580.745667,228.026688 579.697510,227.362152 578.802002,227.422577 
M579.929260,223.211716 
	C582.241943,219.758438 579.467773,220.041718 577.110107,220.038803 
	C577.873108,220.976807 578.636108,221.914810 579.929260,223.211716 
z"/>
<path fill="#05BD65" opacity="1.000000" stroke="none" 
	d="
M727.031799,211.907562 
	C727.196350,211.934677 727.360901,211.961777 727.790039,212.468048 
	C728.097473,252.149673 728.121277,291.352173 728.229309,330.554443 
	C728.235901,332.956604 728.908936,335.356934 729.271851,337.758087 
	C729.271851,337.758087 729.046570,338.078918 729.030457,338.551544 
	C730.128662,343.778320 733.436462,345.327881 737.927917,345.054688 
	C742.327881,344.787079 744.350586,341.951813 745.025024,338.005646 
	C745.526001,335.075195 745.925293,332.087616 745.949158,329.122101 
	C746.067993,314.337433 746.077454,299.551605 746.069580,284.766235 
	C746.056946,260.851868 746.000793,236.937515 745.963013,213.023163 
	C745.963013,213.023163 746.044556,212.953720 746.370239,212.688141 
	C759.425598,212.348373 772.155212,212.274155 784.884827,212.199951 
	C784.884827,212.199951 784.909119,212.106186 784.844604,212.484116 
	C784.889404,213.581772 784.998779,214.301483 785.108154,215.021210 
	C785.025696,216.733734 784.943237,218.446274 784.838928,221.035492 
	C784.871643,228.793762 784.926147,235.675323 784.986816,242.953735 
	C785.322388,249.536850 785.651855,255.723083 785.580566,262.104919 
	C785.046936,271.422882 784.808228,280.545319 784.813049,289.667572 
	C784.817444,297.785309 785.091553,305.902924 785.143555,314.448730 
	C785.021301,323.063171 785.002258,331.249512 784.906250,339.943115 
	C784.888550,348.967682 784.947876,357.484955 784.921387,366.331177 
	C784.891907,367.106323 784.948120,367.552521 784.898499,368.401062 
	C784.820679,370.185852 784.848633,371.568207 784.876587,372.950592 
	C784.876587,372.950592 784.964417,372.941132 784.485535,373.031677 
	C771.476074,373.122223 758.945496,373.122223 745.969604,373.122223 
	C745.969604,367.840485 745.969604,363.142700 745.969604,356.957092 
	C744.465820,359.913818 743.718140,361.520569 742.852783,363.061218 
	C739.461975,369.098938 734.906128,374.207031 727.704773,374.642883 
	C721.347229,375.027710 714.811890,374.388641 708.514832,373.287750 
	C702.945679,372.314148 698.621399,368.719208 695.874451,363.619476 
	C692.246094,356.883209 689.673035,349.831909 690.038330,341.624207 
	C689.998901,340.457825 689.869507,339.680023 689.734497,338.610657 
	C689.690247,337.932465 689.651428,337.545837 689.721313,336.928467 
	C689.699219,336.397644 689.568542,336.097595 689.424194,335.342896 
	C689.389709,303.572601 689.387329,272.256897 689.334717,240.941299 
	C689.321899,233.290604 689.144470,225.640167 689.042786,217.989609 
	C689.042786,217.989609 689.248169,217.579849 689.501831,217.059219 
	C689.857483,215.067902 689.959473,213.597214 690.085022,212.116241 
	C690.108582,212.105942 690.154785,212.083389 690.610352,212.147049 
	C703.054565,212.109665 715.043152,212.008621 727.031799,211.907562 
z"/>
<path fill="#07BD66" opacity="1.000000" stroke="none" 
	d="
M287.261780,338.773163 
	C287.139252,349.094513 286.982086,359.415680 286.921936,369.737396 
	C286.909119,371.937805 286.854614,373.715881 283.908112,373.693542 
	C272.579987,373.607697 261.251160,373.614960 249.922791,373.553528 
	C249.468872,373.551056 249.016800,373.204224 248.017303,372.792908 
	C248.017303,369.090118 248.017303,365.206238 248.017303,360.572235 
	C246.764542,361.342102 246.018494,361.527771 245.812149,361.966980 
	C239.595901,375.199249 228.146912,376.449524 215.734253,374.797821 
	C202.872330,373.086395 195.907104,365.468628 193.144913,351.070190 
	C192.806534,349.306366 192.158554,347.601959 191.336517,345.276459 
	C191.311691,343.423981 191.865646,342.162659 191.854309,340.906464 
	C191.785736,333.314758 191.587906,325.724243 191.562027,317.845825 
	C191.709518,315.497955 191.728271,313.437622 191.673615,311.296600 
	C191.600204,311.215912 191.669037,310.800598 191.739792,310.268799 
	C191.826187,289.755005 191.900208,269.772858 191.835541,249.791168 
	C191.796814,237.820587 191.541229,225.850723 191.383118,213.880539 
	C191.523148,213.463623 191.663177,213.046692 192.366913,212.330597 
	C205.189529,212.031418 217.448441,212.031418 230.170502,212.031418 
	C230.170502,214.419815 230.170929,216.058212 230.170441,217.696609 
	C230.159195,255.523941 230.127594,293.351318 230.177841,331.178558 
	C230.181580,333.979919 230.300522,336.955566 231.250809,339.522583 
	C231.934753,341.370117 234.091858,342.672302 235.665024,344.222961 
	C235.738205,344.228149 235.759064,344.373383 236.067871,344.635315 
	C244.278763,345.388947 246.613617,344.171631 247.449844,336.358521 
	C248.384796,327.623077 248.108566,318.748047 248.183594,309.932281 
	C248.461304,277.292480 248.666534,244.652054 248.899017,212.011871 
	C248.899017,212.011871 248.998215,212.029251 249.473083,212.034561 
	C262.250732,212.078140 274.553497,212.116409 286.856262,212.154678 
	C286.856262,212.154678 286.925476,212.137634 286.874817,212.569366 
	C286.922302,223.853928 287.020386,234.706741 287.090454,246.042847 
	C287.074432,249.404907 287.086456,252.283691 287.080688,255.614960 
	C286.995209,267.724274 286.852295,279.381348 286.886536,291.037903 
	C286.908936,298.668610 287.187866,306.298553 287.268982,314.396545 
	C287.211304,322.833893 287.236542,330.803528 287.261780,338.773163 
z"/>
<path fill="#3CB6FB" opacity="1.000000" stroke="none" 
	d="
M383.872986,236.043732 
	C388.712433,219.314178 401.106598,212.621353 417.252930,210.783905 
	C429.632385,209.375153 441.830139,209.293930 453.403778,214.858414 
	C467.763733,221.762543 474.820587,233.385468 474.875763,249.125793 
	C475.009949,287.413269 474.940704,325.701447 474.954376,363.989349 
	C474.957916,373.858093 474.959778,373.818878 465.305084,373.750549 
	C457.315277,373.694000 449.320831,373.599243 441.336121,373.810852 
	C437.552124,373.911163 435.731842,372.964996 436.204163,368.771210 
	C436.571381,365.510651 436.277557,362.175659 436.277557,357.360229 
	C434.172485,360.767883 432.797211,362.904785 431.509369,365.093140 
	C422.393738,380.582947 393.454773,377.630066 386.643890,362.787048 
	C384.375763,357.844147 382.937347,352.520508 380.948608,346.573608 
	C380.744507,333.783508 380.711395,321.790802 380.812286,309.446198 
	C383.974762,293.661896 392.967194,283.599304 407.961914,278.772095 
	C414.916229,276.533356 421.672180,273.638000 428.691589,271.654449 
	C434.359222,270.052856 437.024323,267.254791 436.012451,261.152283 
	C435.046295,255.325348 435.053741,249.289825 433.578033,243.620651 
	C433.077545,241.697983 429.298370,239.384888 427.127838,239.491730 
	C424.970337,239.597916 422.009949,242.127380 421.098206,244.304626 
	C419.812195,247.375580 419.614105,251.128189 419.814240,254.538696 
	C420.069244,258.884399 418.390259,259.876556 414.371368,259.797668 
	C403.558197,259.585510 392.737335,259.763763 381.903076,259.337677 
	C381.912811,255.519119 381.938995,252.149948 382.089539,248.413086 
	C382.766907,244.044861 383.319946,240.044296 383.872986,236.043732 
M419.062042,305.984528 
	C419.039551,314.967590 418.865845,323.954315 419.085876,332.931458 
	C419.152649,335.655945 419.667755,338.798645 421.152222,340.932648 
	C422.505402,342.877869 425.472656,344.787994 427.687378,344.741791 
	C429.925873,344.695099 432.856934,342.696899 434.124329,340.693146 
	C435.516510,338.492065 435.769470,335.313843 435.802124,332.552917 
	C435.961517,319.079407 435.893677,305.603058 435.865356,292.127777 
	C435.862793,290.909149 435.568848,289.691101 435.364227,288.119843 
	C426.384003,290.904541 420.916382,296.238220 419.062042,305.984528 
z"/>
<path fill="#3BB6FB" opacity="1.000000" stroke="none" 
	d="
M635.999512,209.971619 
	C637.072937,209.986694 638.146362,210.001770 640.024414,210.040985 
	C642.215637,210.007355 643.602356,209.949585 644.989014,209.891815 
	C645.434265,209.953796 645.879517,210.015793 646.933472,210.252823 
	C648.710938,210.462402 649.879700,210.496948 651.048523,210.531494 
	C651.482483,210.640335 651.916504,210.749176 653.047729,210.973114 
	C666.030701,213.489655 675.736267,219.833420 682.850220,230.136963 
	C682.850220,230.136963 682.808533,230.085968 682.840393,230.490341 
	C684.258606,237.997894 686.681519,245.077972 686.840332,252.208481 
	C687.351746,275.167297 686.999268,298.144745 687.039551,321.114899 
	C687.058228,331.759491 687.214722,342.403778 687.308716,353.048218 
	C687.252136,358.045044 687.195618,363.041870 687.087280,368.886292 
	C687.026001,370.801483 687.016541,371.869110 686.967529,372.949890 
	C686.927979,372.963104 686.929504,373.046417 686.469971,373.082031 
	C674.912781,373.155914 663.814514,373.141785 652.717834,373.269531 
	C649.967773,373.301178 648.826477,372.349182 648.932312,369.526184 
	C649.087524,365.386108 648.972290,361.235870 648.972290,357.477631 
	C645.056274,362.366150 641.285583,367.073395 637.364441,371.779572 
	C637.214050,371.778534 636.988281,371.977295 636.617188,372.023682 
	C623.381104,377.880798 611.785278,375.433533 601.111694,366.411255 
	C600.709229,365.761444 600.354004,365.378296 599.960449,364.657593 
	C598.995361,362.778748 598.068604,361.237488 597.134155,359.501587 
	C597.126465,359.307007 596.901611,358.988983 596.887695,358.632263 
	C596.256714,356.460449 595.639648,354.645386 595.218201,352.619812 
	C594.923218,351.007660 594.432678,349.606079 593.939453,348.139984 
	C593.936829,348.075500 593.873169,347.963287 593.900513,347.530029 
	C593.920776,333.511078 593.913757,319.925385 594.028809,305.973816 
	C597.146240,294.492645 603.605164,286.192352 614.394775,281.110779 
	C615.958862,280.457916 617.174805,279.823181 618.559570,279.198059 
	C618.728394,279.207672 619.015015,279.028229 619.390625,279.008301 
	C624.614685,277.248291 629.429932,275.408173 634.317810,273.786560 
	C649.970215,268.593536 650.237366,268.411835 648.526123,251.765762 
	C648.208984,248.681335 646.410950,245.749146 645.284912,242.752380 
	C645.273438,242.758087 645.256714,242.777435 645.207092,242.516479 
	C644.871033,242.076996 644.584656,241.898483 644.293213,241.689941 
	C644.288269,241.659912 644.292480,241.599167 644.162109,241.285202 
	C641.336914,238.933517 638.636963,237.751450 635.960449,240.943604 
	C636.009766,240.964340 635.926880,240.896286 635.577637,240.975189 
	C630.048828,246.272186 632.517578,252.880005 631.971985,258.955139 
	C631.965698,258.969025 631.942017,258.988251 631.479248,259.013306 
	C618.988159,259.140717 606.959839,259.243042 594.878967,259.244507 
	C594.826355,259.143646 594.599121,259.131409 594.648071,258.801758 
	C594.511780,257.641907 594.326660,256.811676 594.207397,255.570740 
	C594.239624,253.233582 594.205872,251.307175 594.411987,249.028656 
	C595.248169,236.217255 599.100159,225.243713 609.077820,217.065689 
	C609.077820,217.065689 608.995239,217.015594 609.380737,217.011612 
	C612.246094,215.706360 614.726013,214.405090 617.509216,213.116516 
	C618.201172,213.026840 618.589844,212.924469 619.343140,212.855927 
	C621.480103,212.281158 623.252502,211.672546 625.024902,211.063934 
	C625.775208,211.037674 626.525513,211.011444 628.062988,210.963913 
	C631.233276,210.618958 633.616394,210.295288 635.999512,209.971619 
M632.858276,340.404510 
	C635.002136,341.958466 636.986877,344.490662 639.321716,344.870392 
	C644.828064,345.766052 647.945618,341.827118 648.027771,334.300323 
	C648.169312,321.340179 648.068115,308.377380 648.068665,295.415710 
	C648.068787,293.162384 648.068665,290.909058 648.068665,288.084259 
	C639.629883,290.400391 633.139587,294.974670 632.447449,302.588501 
	C631.333130,314.846558 632.397522,327.302673 632.858276,340.404510 
z"/>
<path fill="#FA4848" opacity="1.000000" stroke="none" 
	d="
M191.433289,318.133331 
	C191.587906,325.724243 191.785736,333.314758 191.854309,340.906464 
	C191.865646,342.162659 191.311691,343.423981 190.986313,344.871033 
	C189.302048,348.489655 187.916245,352.081512 185.949936,355.321014 
	C179.534058,365.891235 169.861618,371.986816 157.879593,374.120972 
	C145.962280,376.243561 133.937805,376.216034 122.354744,372.279938 
	C104.634453,366.258270 97.524330,352.292664 95.942245,334.861298 
	C95.330231,328.118073 95.842369,321.272858 95.842369,314.082397 
	C108.730721,314.082397 121.443962,314.082397 134.891418,314.082397 
	C134.891418,318.607635 134.863602,323.059540 134.901505,327.510895 
	C134.925598,330.339447 134.784393,333.204620 135.181076,335.987305 
	C135.962006,341.465302 138.873993,344.093689 143.604706,344.074799 
	C148.312088,344.056000 150.806732,341.455292 151.535736,335.705353 
	C153.025253,323.957001 148.239822,315.167938 139.002823,308.181335 
	C129.328064,300.863678 119.881874,293.241028 110.406227,285.663574 
	C94.442101,272.897400 93.376442,246.312012 99.158295,233.391312 
	C102.405991,226.133698 107.622711,220.534897 114.592834,216.982697 
	C132.493240,207.860062 150.888092,207.323395 169.486526,214.894333 
	C178.490555,218.559616 184.175354,225.408203 187.925201,234.908569 
	C189.193649,242.248093 190.162048,248.975479 191.174805,255.696167 
	C191.706665,259.225616 190.209412,260.392517 186.723312,260.308319 
	C178.397568,260.107300 170.064621,260.202942 161.734573,260.184265 
	C158.321533,260.176605 154.908463,260.183014 151.023895,260.183014 
	C151.023895,256.214996 151.290054,253.037781 150.968948,249.921082 
	C150.282684,243.259964 146.778717,239.690186 141.917664,240.261658 
	C137.331345,240.800812 134.719345,244.292282 135.080002,249.608475 
	C135.412552,254.510330 137.454025,258.550934 141.471802,261.508331 
	C146.962128,265.549622 152.444946,269.601166 157.928741,273.651367 
	C171.084381,283.367828 184.359314,292.971710 189.776382,309.573547 
	C189.957703,310.129242 191.018295,310.398071 191.669037,310.800598 
	C191.669037,310.800598 191.600204,311.215912 191.316391,311.554260 
	C191.166153,313.972839 191.299728,316.053070 191.433289,318.133331 
z"/>
<path fill="#F93334" opacity="1.000000" stroke="none" 
	d="
M785.981323,261.909332 
	C785.651855,255.723083 785.322388,249.536850 785.229858,242.629456 
	C786.030579,239.614761 786.594543,237.321198 787.358154,234.812408 
	C787.590454,234.221985 787.623108,233.846786 787.672180,233.460602 
	C787.688599,233.449600 787.724365,233.472580 787.724365,233.472580 
	C804.104370,210.283997 835.608276,202.797455 860.995850,216.309799 
	C871.442993,221.870209 876.631592,231.430542 878.704346,242.666443 
	C879.692993,248.025055 879.649841,253.573990 879.550659,259.493408 
	C867.544495,259.984833 856.060791,259.942932 844.579773,260.102417 
	C841.272095,260.148346 839.884888,259.353058 839.941528,255.628860 
	C839.998291,251.901459 839.405029,247.981247 838.183472,244.462616 
	C836.574524,239.828171 829.668762,238.050674 826.807068,241.821808 
	C824.811890,244.451080 824.268311,248.850204 824.529968,252.350067 
	C824.838867,256.481873 826.507446,260.667725 831.811768,261.356567 
	C831.852478,261.346100 831.843079,261.429810 831.644165,261.748047 
	C842.607361,270.764160 853.769409,279.462036 864.931458,288.159912 
	C865.401245,288.724548 865.871033,289.289124 866.681763,290.287506 
	C872.920105,297.246857 877.303589,304.622742 879.624451,313.157166 
	C879.746338,313.902466 879.868225,314.647766 880.082764,316.053650 
	C880.403503,317.309448 880.631592,317.904694 880.859680,318.499939 
	C880.791260,324.864136 880.722839,331.228363 880.520813,338.269135 
	C880.349487,339.608002 880.311768,340.270325 880.274048,340.932617 
	C880.122192,341.328308 879.970276,341.723969 879.575317,342.705017 
	C875.833862,357.724152 867.080444,367.640411 852.981995,372.066864 
	C846.568298,374.080536 839.605164,374.344147 832.891296,375.401550 
	C830.222900,375.257324 827.554504,375.113068 824.047363,374.928406 
	C821.841064,374.792847 820.473572,374.697723 819.039429,374.585999 
	C818.972839,374.569458 818.835510,374.566742 818.494385,374.357910 
	C812.526062,371.991882 806.898804,369.834686 801.271545,367.677460 
	C801.271545,367.677460 801.066345,367.788513 801.066040,367.441406 
	C798.797729,365.032196 796.529785,362.970062 794.177063,360.564301 
	C792.485413,357.592834 790.530334,355.110901 789.353821,352.302765 
	C787.607666,348.135010 786.412781,343.736237 784.983154,339.435791 
	C785.002258,331.249512 785.021301,323.063171 785.591064,314.418762 
	C798.377502,313.960693 810.613403,313.960693 823.724365,313.960693 
	C823.724365,321.601044 823.279724,328.449005 823.932129,335.190796 
	C824.213013,338.093750 826.088440,341.777588 828.423340,343.360352 
	C834.035156,347.164581 839.747314,343.423737 840.709229,335.645630 
	C842.043823,324.853973 838.307861,316.081146 829.655518,309.400726 
	C820.835083,302.590546 811.992249,295.805328 803.305847,288.826630 
	C794.572815,281.810455 787.835754,273.403625 785.981323,261.909332 
z"/>
<path fill="#F93434" opacity="1.000000" stroke="none" 
	d="
M380.678314,309.798065 
	C380.711395,321.790802 380.744507,333.783508 380.802979,346.188110 
	C372.967072,367.443390 356.628235,375.289429 335.729706,375.024567 
	C327.708618,374.922943 319.372559,373.796967 311.782745,371.303192 
	C298.757660,367.023621 291.474548,356.939941 288.597809,343.641968 
	C288.316284,342.340637 287.988617,341.049286 287.472046,339.263245 
	C287.236542,330.803528 287.211304,322.833893 287.710815,314.403046 
	C300.464996,313.941833 312.694397,313.941833 325.472229,313.941833 
	C325.472229,318.049683 325.419586,321.356750 325.486664,324.661377 
	C325.557495,328.150787 325.159851,331.795166 326.046722,335.080353 
	C326.880981,338.170624 328.425629,341.998138 330.885834,343.534088 
	C336.642700,347.128265 342.073944,343.007202 342.895538,335.293671 
	C344.078918,324.183319 339.845612,315.556549 331.159149,308.842529 
	C322.877960,302.441742 314.321259,296.346893 306.486176,289.436707 
	C301.081268,284.669830 295.725952,279.308502 292.157410,273.162506 
	C289.126862,267.943024 288.685455,261.220154 287.098450,255.162491 
	C287.086456,252.283691 287.074432,249.404907 287.277893,245.783081 
	C287.880371,242.671402 288.267303,240.302765 288.820068,237.614990 
	C289.619751,235.510010 290.253601,233.724167 290.887482,231.938339 
	C291.102173,231.697723 291.264313,231.425781 291.701630,230.692902 
	C295.365417,226.551865 298.701477,222.840439 302.037506,219.128998 
	C302.920013,218.615524 303.802521,218.102051 305.232422,217.312607 
	C309.531067,215.395554 313.282318,213.754456 317.033539,212.113373 
	C317.484100,212.042023 317.934692,211.970657 318.984253,211.842606 
	C320.089294,211.544113 320.595337,211.302338 321.101349,211.060547 
	C330.069946,211.081650 339.038513,211.102768 348.569153,211.269974 
	C349.131165,211.416077 349.542969,211.514389 349.542969,211.514389 
	C349.542969,211.514389 349.905396,211.295670 349.905396,211.295670 
	C350.675293,211.501709 351.445221,211.707733 352.857117,212.194000 
	C363.396179,215.228867 370.938812,221.148071 376.568787,229.638046 
	C376.568787,229.638046 376.563171,229.905945 376.667358,230.379608 
	C378.502777,236.829117 380.234009,242.804932 381.965210,248.780762 
	C381.938995,252.149948 381.912811,255.519119 381.441254,259.389282 
	C368.229828,259.890228 355.463776,259.890228 342.740967,259.890228 
	C342.124573,254.840927 341.861542,250.205414 340.920837,245.711746 
	C340.063171,241.614670 337.152557,239.606079 332.808105,240.089478 
	C328.460205,240.573257 326.367340,243.173813 326.060944,247.365860 
	C325.614929,253.468170 327.747955,258.432465 332.730042,262.092194 
	C340.644409,267.905945 348.594299,273.672089 356.463104,279.546906 
	C367.147125,287.523529 376.188812,296.847443 380.678314,309.798065 
z"/>
<path fill="#FBF9F2" opacity="1.000000" stroke="none" 
	d="
M560.919189,209.458771 
	C549.883789,209.815186 541.478455,214.427628 535.517822,224.436783 
	C535.517822,214.496170 535.378479,204.553116 535.553833,194.615601 
	C535.762390,182.794907 535.879578,182.798737 524.338684,182.802261 
	C515.183960,182.805069 506.029175,182.802826 496.244843,182.802826 
	C496.134735,184.827896 495.957428,186.576782 495.956421,188.325775 
	C495.921539,247.815781 495.897675,307.305786 495.890808,366.795807 
	C495.890045,373.403748 495.941284,373.408630 502.304901,373.412170 
	C511.136780,373.417053 519.968689,373.420441 528.800537,373.411926 
	C535.446716,373.405487 535.469971,373.396698 535.470581,366.859436 
	C535.474182,329.365753 535.421021,291.871918 535.536682,254.378632 
	C535.547241,250.961411 535.887024,247.162155 537.426453,244.256958 
	C538.604675,242.033325 541.936462,239.658722 544.278381,239.690781 
	C546.852173,239.725998 550.278320,241.877182 551.708252,244.135345 
	C553.347656,246.724442 553.739502,250.442123 553.749939,253.672485 
	C553.873352,291.665833 553.908752,329.660187 553.709656,367.652893 
	C553.685120,372.343811 555.039124,373.623566 559.601624,373.478973 
	C570.089355,373.146606 580.593689,373.338562 591.443726,373.706421 
	C590.342163,374.708862 588.888245,375.322601 586.815247,376.197662 
	C596.672729,378.266388 596.757935,378.366547 594.992676,384.995117 
	C593.624268,383.358429 592.255859,381.721710 590.301025,379.383575 
	C584.135864,378.136322 582.073059,378.882874 579.850403,383.811890 
	C574.970459,378.573914 568.143372,378.219086 559.926697,380.049103 
	C554.904907,381.167572 549.183228,379.143860 542.910461,378.433350 
	C542.182190,379.862915 540.804138,382.568176 539.426025,385.273407 
	C539.162598,384.750122 538.899170,384.226837 538.635803,383.703552 
	C536.435242,383.404388 534.137024,383.394104 532.071289,382.696014 
	C530.861511,382.287201 530.022217,380.781708 529.379333,379.377869 
	C530.405640,378.340576 531.068970,377.695007 531.732239,377.049438 
	C531.231079,376.775116 530.729919,376.500763 530.228760,376.226440 
	C529.818359,377.150513 529.407959,378.074646 528.997559,378.998779 
	C519.334106,378.998688 509.668732,378.890045 500.008179,379.057983 
	C496.675903,379.115967 495.327362,377.231873 493.321106,374.987396 
	C488.031738,369.069946 489.013580,362.161407 489.011383,355.324707 
	C488.994965,304.674774 488.896729,254.024338 489.128448,203.375458 
	C489.159454,196.596481 490.896545,189.825317 491.899841,182.648361 
	C491.180756,181.658081 489.960114,179.977097 488.739471,178.296097 
	C488.999908,177.854187 489.260345,177.412262 489.520782,176.970337 
	C493.035583,177.314362 496.545746,177.883987 500.066101,177.955780 
	C507.560516,178.108612 515.065552,177.847488 522.554138,178.107407 
	C524.537964,178.176254 526.430908,179.726364 528.458435,180.190079 
	C529.378723,180.400543 530.631836,179.793594 531.538635,179.238358 
	C532.380554,178.722794 532.962585,177.782730 533.659119,177.029587 
	C534.433838,177.872711 535.415894,178.606018 535.934326,179.584854 
	C536.700745,181.031677 537.137695,182.653030 537.714905,184.200073 
	C538.270874,184.072495 538.826782,183.944916 539.382690,183.817337 
	C539.757874,181.671799 540.133057,179.526260 540.727539,176.126724 
	C547.399658,180.956146 539.066650,188.154449 544.744141,191.639999 
	C537.657410,196.259109 542.633362,202.733734 540.945984,207.498428 
	C546.260010,211.412994 551.184387,210.529953 556.320068,208.239014 
	C557.466370,207.727676 559.306091,208.770676 560.919189,209.458771 
M539.407349,354.410095 
	C539.272400,352.600922 539.021301,350.791840 539.019775,348.982574 
	C538.995239,319.848328 539.007690,290.714050 538.988831,261.579803 
	C538.987793,259.918915 538.789612,258.258148 538.683228,256.597290 
	C538.198425,256.616638 537.713684,256.635956 537.228882,256.655273 
	C537.155029,258.178192 537.023804,259.700836 537.017456,261.224030 
	C536.993103,267.050781 537.009766,272.877716 537.009705,278.704559 
	C537.009277,306.839935 536.994507,334.975342 537.035278,363.110657 
	C537.038330,365.220398 536.039795,368.183899 540.732849,368.016998 
	C541.061890,368.059998 541.559631,367.979340 541.695190,368.164215 
	C544.525818,372.024841 547.985168,369.824921 550.714111,368.495850 
	C551.817993,367.958191 551.943848,364.725647 551.947754,362.718323 
	C552.016785,327.747162 551.907166,292.775299 552.110046,257.805176 
	C552.135864,253.350723 550.725586,251.218567 546.114136,250.348358 
	C546.329346,252.637909 546.505066,254.507523 546.688477,256.458984 
	C544.718689,256.886230 543.006409,257.257629 540.997559,257.693329 
	C540.997559,259.764282 540.997498,261.575714 540.997498,263.387146 
	C540.997498,292.030304 541.016479,320.673492 540.954712,349.316528 
	C540.950684,351.211273 540.332520,353.104736 539.407349,354.410095 
M538.977112,196.179016 
	C538.360474,195.975891 537.743774,195.772766 537.127136,195.569641 
	C537.127136,199.821060 537.127136,204.072495 537.127136,208.323914 
	C537.751160,208.326233 538.375122,208.328568 538.999146,208.330887 
	C538.999146,204.563797 538.999146,200.796707 538.977112,196.179016 
z"/>
<path fill="#C4F6DF" opacity="1.000000" stroke="none" 
	d="
M191.739792,310.268799 
	C191.018295,310.398071 189.957703,310.129242 189.776382,309.573547 
	C184.359314,292.971710 171.084381,283.367828 157.928741,273.651367 
	C152.444946,269.601166 146.962128,265.549622 141.471802,261.508331 
	C137.454025,258.550934 135.412552,254.510330 135.080002,249.608475 
	C134.719345,244.292282 137.331345,240.800812 141.917664,240.261658 
	C146.778717,239.690186 150.282684,243.259964 150.968948,249.921082 
	C151.290054,253.037781 151.023895,256.214996 151.023895,260.183014 
	C154.908463,260.183014 158.321533,260.176605 161.734573,260.184265 
	C170.064621,260.202942 178.397568,260.107300 186.723312,260.308319 
	C190.209412,260.392517 191.706665,259.225616 191.174805,255.696167 
	C190.162048,248.975479 189.193649,242.248093 188.177094,235.168625 
	C188.789902,232.883682 189.817657,230.988998 189.998947,229.016541 
	C190.449356,224.115677 190.513702,219.179321 191.058090,214.068878 
	C191.541229,225.850723 191.796814,237.820587 191.835541,249.791168 
	C191.900208,269.772858 191.826187,289.755005 191.739792,310.268799 
z"/>
<path fill="#E3FBF5" opacity="1.000000" stroke="none" 
	d="
M687.675049,353.052521 
	C687.214722,342.403778 687.058228,331.759491 687.039551,321.114899 
	C686.999268,298.144745 687.351746,275.167297 686.840332,252.208481 
	C686.681519,245.077972 684.258606,237.997894 682.843994,230.523224 
	C684.123413,230.065094 685.431152,229.978424 686.891479,229.881653 
	C687.410278,226.092377 687.929016,222.303757 688.745239,218.252380 
	C689.144470,225.640167 689.321899,233.290604 689.334717,240.941299 
	C689.387329,272.256897 689.389709,303.572601 689.299500,335.572815 
	C689.329834,336.558014 689.471252,336.858612 689.612671,337.159241 
	C689.651428,337.545837 689.690247,337.932465 689.545959,338.835693 
	C689.558044,340.239136 689.753174,341.125977 689.948303,342.012817 
	C689.673035,349.831909 692.246094,356.883209 695.874451,363.619476 
	C698.621399,368.719208 702.945679,372.314148 708.514832,373.287750 
	C714.811890,374.388641 721.347229,375.027710 727.704773,374.642883 
	C734.906128,374.207031 739.461975,369.098938 742.852783,363.061218 
	C743.718140,361.520569 744.465820,359.913818 745.969604,356.957092 
	C745.969604,363.142700 745.969604,367.840485 745.969604,373.122223 
	C758.945496,373.122223 771.476074,373.122223 784.455261,372.999512 
	C783.549255,374.581726 782.194641,376.286591 780.096680,378.927063 
	C771.902222,379.008209 762.521240,379.528625 753.509094,376.002686 
	C752.891174,375.760956 752.121582,375.264282 751.628296,375.445709 
	C746.690369,377.262299 744.021851,374.706299 742.017883,370.679932 
	C741.917603,370.478424 741.429443,370.469971 740.562561,370.192871 
	C739.683960,372.232422 738.782593,374.324860 737.652954,376.947021 
	C732.486023,376.947021 726.700500,376.947021 721.141052,376.947021 
	C720.452881,378.528595 719.903503,380.719604 719.431458,380.703064 
	C717.976807,380.652039 716.499634,379.859161 715.131226,379.158936 
	C714.022705,378.591644 713.131775,377.259857 712.019470,377.091431 
	C700.089111,375.284546 693.013550,368.584961 690.667358,356.715668 
	C690.402405,355.375427 688.945557,354.270752 687.675049,353.052521 
z"/>
<path fill="#C4F6DF" opacity="1.000000" stroke="none" 
	d="
M235.591843,344.217743 
	C234.091858,342.672302 231.934753,341.370117 231.250809,339.522583 
	C230.300522,336.955566 230.181580,333.979919 230.177841,331.178558 
	C230.127594,293.351318 230.159195,255.523941 230.170441,217.696609 
	C230.170929,216.058212 230.170502,214.419815 230.170502,212.031418 
	C217.448441,212.031418 205.189529,212.031418 192.461777,212.013992 
	C192.395615,211.213669 192.781494,209.756714 193.203384,209.746201 
	C204.620636,209.461823 216.041824,209.244522 227.461563,209.278824 
	C228.724457,209.282608 230.570877,210.600800 231.103241,211.780319 
	C231.876389,213.493301 231.897034,215.634796 231.898895,217.593872 
	C231.935211,255.543869 231.920822,293.493927 231.922607,331.443970 
	C231.922699,333.107513 231.690491,334.841461 232.077087,336.417358 
	C232.597748,338.539673 233.408051,340.765778 236.522903,339.165375 
	C237.162384,338.836792 238.499710,338.855377 238.931351,339.291718 
	C242.741135,343.142731 243.969620,339.955444 245.145523,337.032104 
	C245.689087,335.680786 246.024551,334.150848 246.042313,332.696899 
	C246.403778,303.105896 246.742905,273.514404 246.943604,243.922058 
	C246.958679,241.701202 245.405334,239.463989 245.445816,237.250183 
	C245.525116,232.913116 246.473740,228.592865 246.568588,224.254868 
	C246.642761,220.861923 245.971405,217.452667 245.549408,213.231277 
	C245.619156,213.199600 246.910629,212.612869 248.550568,212.019012 
	C248.666534,244.652054 248.461304,277.292480 248.183594,309.932281 
	C248.108566,318.748047 248.384796,327.623077 247.449844,336.358521 
	C246.613617,344.171631 244.278763,345.388947 236.432236,344.516235 
	C237.249084,343.790558 238.010376,343.445862 238.771652,343.101166 
	C238.509766,342.736572 238.247864,342.371979 237.985962,342.007416 
	C237.187927,342.744202 236.389877,343.480957 235.591843,344.217743 
z"/>
<path fill="#E3FBF5" opacity="1.000000" stroke="none" 
	d="
M745.596680,212.999603 
	C746.000793,236.937515 746.056946,260.851868 746.069580,284.766235 
	C746.077454,299.551605 746.067993,314.337433 745.949158,329.122101 
	C745.925293,332.087616 745.526001,335.075195 745.025024,338.005646 
	C744.350586,341.951813 742.327881,344.787079 737.927917,345.054688 
	C733.436462,345.327881 730.128662,343.778320 729.075073,338.742432 
	C733.273132,338.326965 733.041443,335.450867 733.038330,332.503632 
	C733.001282,297.681854 733.010620,262.860046 733.025635,228.038223 
	C733.026428,226.174713 733.186035,224.311249 734.405579,222.295914 
	C734.806641,223.035751 735.561035,223.777054 735.557983,224.515213 
	C735.408325,260.640656 735.161438,296.765747 735.085205,332.891205 
	C735.081604,334.607483 736.525452,336.326843 737.574402,338.667847 
	C737.252686,339.422058 736.499084,341.189117 735.745483,342.956207 
	C740.377319,341.469604 743.012146,339.170898 741.159973,334.464478 
	C740.790222,333.525024 740.968567,331.892639 741.579224,331.124115 
	C744.823792,327.040680 743.995789,322.311066 743.999817,317.724884 
	C744.025879,288.401245 743.992981,259.077606 744.043762,229.754059 
	C744.048645,226.956970 744.626404,224.162842 744.673340,221.362915 
	C744.692688,220.207123 744.142334,218.977844 743.623779,217.890411 
	C742.562866,215.665512 741.348145,213.513992 740.196777,211.332260 
	C740.656738,211.074356 741.116699,210.816437 741.576660,210.558533 
	C742.794556,211.364380 744.012512,212.170227 745.596680,212.999603 
z"/>
<path fill="#FDFAFD" opacity="1.000000" stroke="none" 
	d="
M831.771118,261.367035 
	C826.507446,260.667725 824.838867,256.481873 824.529968,252.350067 
	C824.268311,248.850204 824.811890,244.451080 826.807068,241.821808 
	C829.668762,238.050674 836.574524,239.828171 838.183472,244.462616 
	C839.405029,247.981247 839.998291,251.901459 839.941528,255.628860 
	C839.884888,259.353058 841.272095,260.148346 844.579773,260.102417 
	C856.060791,259.942932 867.544495,259.984833 879.494019,259.953247 
	C880.537048,264.659729 879.395508,265.319153 875.214783,264.683228 
	C867.126648,263.453064 858.944336,262.806946 850.785583,262.098145 
	C848.425781,261.893127 846.012817,262.299530 842.781921,262.470123 
	C843.884338,263.649445 844.440125,264.576263 845.258179,265.053345 
	C847.260803,266.221222 849.544250,266.843750 848.351196,270.209351 
	C848.082458,270.967438 850.232910,273.532104 851.473877,273.693298 
	C854.814148,274.127258 858.276550,273.526031 861.664368,273.743256 
	C862.731323,273.811676 863.715393,275.171112 864.737366,275.939697 
	C861.022339,279.819458 863.921997,283.566711 864.948730,287.755524 
	C853.769409,279.462036 842.607361,270.764160 831.934753,261.598938 
	C832.285461,260.418549 832.146667,259.705475 832.006104,258.582092 
	C832.262878,255.667740 832.521362,253.163757 832.779846,250.659760 
	C832.177979,250.653107 831.576172,250.646469 830.974304,250.639816 
	C832.166016,253.404800 827.297852,256.343384 831.977173,259.401062 
	C831.898499,260.318390 831.834778,260.842712 831.771118,261.367035 
M834.709167,244.642059 
	C833.830078,243.990112 832.950928,243.338165 832.071777,242.686234 
	C831.706909,244.237106 831.341980,245.787979 830.977112,247.338852 
	C831.697144,247.851761 832.417236,248.364685 833.137329,248.877594 
	C833.656677,247.697540 834.176025,246.517471 834.709167,244.642059 
z"/>
<path fill="#FBF9F2" opacity="1.000000" stroke="none" 
	d="
M594.172119,249.380768 
	C594.205872,251.307175 594.239624,253.233582 593.956055,255.581573 
	C593.472595,256.024658 593.306458,256.046112 593.090942,255.722656 
	C592.851868,254.282440 592.662109,253.187103 592.472290,252.091751 
	C592.430542,251.297104 592.388733,250.502441 592.570190,248.999390 
	C592.557495,245.880264 592.321594,243.469559 592.085693,241.058853 
	C590.362793,235.732513 588.639893,230.406174 586.483337,225.004883 
	C586.049683,224.929947 586.226990,224.718170 586.226990,224.718170 
	C582.063965,215.357910 574.086426,211.773926 564.300781,210.241409 
	C571.568726,209.833374 579.299072,208.692978 586.675720,209.835663 
	C590.244324,210.388474 593.206604,212.503830 597.196289,210.624588 
	C600.004272,209.301971 605.538330,212.920059 606.661621,216.748871 
	C600.838196,218.220535 598.672180,223.554962 597.453796,227.143814 
	C595.084351,234.123062 595.128052,241.921616 594.172119,249.380768 
z"/>
<path fill="#FDFAFD" opacity="1.000000" stroke="none" 
	d="
M832.679871,375.592773 
	C839.605164,374.344147 846.568298,374.080536 852.981995,372.066864 
	C867.080444,367.640411 875.833862,357.724152 879.601807,343.024353 
	C880.228577,343.851929 880.972351,344.980743 880.876404,346.032959 
	C880.450867,350.698883 879.784302,355.342773 879.150146,360.434845 
	C878.542664,360.352936 877.369507,359.852600 876.467834,360.156830 
	C875.246765,360.568848 874.233826,361.597870 873.131531,362.362152 
	C873.838745,363.250946 874.381775,364.411957 875.293396,364.961609 
	C876.512390,365.696533 878.017212,365.957336 879.399292,366.421692 
	C878.759277,366.918701 878.119263,367.415710 877.479248,367.912720 
	C874.034424,367.912720 869.509033,366.577759 867.427917,368.262390 
	C865.015991,370.214813 864.752014,374.820648 863.367493,378.817596 
	C862.360046,378.934540 860.432373,379.158264 858.202576,379.417084 
	C858.282410,381.242615 858.351257,382.816345 858.502014,386.263092 
	C855.143799,383.842743 852.739563,382.109985 849.519958,379.789520 
	C851.784058,379.205780 853.126038,378.859802 854.824585,378.421906 
	C853.183350,375.342987 851.047058,374.385376 847.960388,375.669250 
	C844.267090,377.205475 840.570801,378.734619 836.447388,380.444458 
	C836.633850,380.973297 837.083801,382.249512 837.892822,384.543976 
	C829.209717,383.780792 820.949402,383.054779 812.689148,382.328766 
	C812.636475,381.991852 812.583801,381.654938 812.531189,381.318024 
	C817.591736,380.545746 822.640259,379.312286 827.717590,379.179443 
	C830.617920,379.103607 831.528076,377.809540 832.679871,375.592773 
z"/>
<path fill="#FBF9F2" opacity="1.000000" stroke="none" 
	d="
M636.988281,371.977295 
	C636.988281,371.977295 637.214050,371.778534 637.798889,371.847595 
	C639.251587,371.940521 640.119446,371.964417 640.991760,372.418823 
	C640.500244,375.408112 640.004272,377.966858 639.566650,380.224609 
	C641.126526,381.596100 643.060120,383.296204 644.993713,384.996338 
	C639.066528,383.292572 633.139282,381.588806 626.698181,379.737305 
	C625.193359,382.548553 623.523682,384.456299 619.082397,380.781219 
	C616.616150,378.740417 611.547974,379.843994 606.712891,379.454712 
	C608.292664,385.536682 614.101990,381.169983 617.380005,384.996948 
	C610.876282,384.996948 605.408325,384.996948 599.520752,384.663757 
	C603.582214,378.466675 598.865417,374.289429 595.460876,369.713348 
	C597.874451,368.967407 599.425598,368.488007 601.023621,368.356567 
	C603.987305,373.995667 609.365845,375.602478 614.542480,376.735504 
	C618.580872,377.619415 622.969604,377.125092 627.185669,376.909882 
	C631.083008,376.710968 635.832336,377.788147 636.988281,371.977295 
z"/>
<path fill="#E3FBF5" opacity="1.000000" stroke="none" 
	d="
M729.497375,337.270447 
	C728.908936,335.356934 728.235901,332.956604 728.229309,330.554443 
	C728.121277,291.352173 728.097473,252.149673 728.039917,212.480133 
	C730.092285,211.413574 732.159424,210.814072 734.541748,210.123169 
	C734.541748,211.786423 734.541748,213.961945 734.541748,216.484634 
	C729.906128,216.370407 729.929993,219.476303 729.938965,223.063019 
	C730.028137,258.814331 730.000366,294.565948 729.985718,330.317505 
	C729.984802,332.472626 729.814453,334.627686 729.497375,337.270447 
z"/>
<path fill="#FBF9F2" opacity="1.000000" stroke="none" 
	d="
M689.017090,371.012878 
	C690.335205,371.079010 691.811340,370.806335 692.919434,371.322906 
	C693.744507,371.707520 694.418457,373.079803 694.523071,374.078918 
	C694.579102,374.614105 693.339417,375.359467 692.597595,375.888000 
	C691.135620,376.929596 689.290405,377.611725 688.172241,378.926208 
	C683.725830,384.153473 679.153564,384.818634 672.911011,382.547119 
	C668.922852,381.095978 664.276917,381.452576 659.034790,380.998535 
	C654.207825,381.610016 652.296326,380.148621 653.376831,375.833252 
	C654.527466,375.455353 655.317200,375.049835 656.109253,375.045349 
	C664.828796,374.995819 673.550781,375.104156 682.266663,374.916656 
	C683.833618,374.882904 685.375854,373.699188 686.929504,373.046448 
	C686.929504,373.046417 686.927979,372.963104 687.287964,372.932922 
	C688.104370,372.272766 688.560730,371.642822 689.017090,371.012878 
z"/>
<path fill="#FEFDFE" opacity="1.000000" stroke="none" 
	d="
M653.017090,375.991852 
	C652.296326,380.148621 654.207825,381.610016 658.571899,380.999207 
	C657.856934,385.030823 655.140259,386.310699 651.171692,385.595673 
	C649.419373,385.279938 647.626099,385.191010 645.422607,384.997742 
	C643.060120,383.296204 641.126526,381.596100 639.566650,380.224609 
	C640.004272,377.966858 640.500244,375.408112 641.262451,372.233398 
	C642.910706,370.568146 643.963501,367.110077 645.653442,371.071228 
	C645.298889,372.932098 645.311768,374.725311 645.324646,376.518494 
	C646.218140,376.001099 647.111633,375.483643 648.370483,375.011963 
	C650.162903,375.369080 651.590027,375.680481 653.017090,375.991852 
z"/>
<path fill="#FDFAFD" opacity="1.000000" stroke="none" 
	d="
M819.106079,374.602539 
	C820.473572,374.697723 821.841064,374.792847 823.605103,375.002686 
	C822.864075,375.744720 821.785950,376.547546 820.574768,376.958160 
	C818.768005,377.570709 816.867432,377.906799 814.882629,378.390839 
	C811.385193,374.401917 808.664246,379.458344 805.343689,378.697021 
	C805.307495,379.168915 805.271362,379.640839 805.235168,380.112732 
	C806.602478,380.622528 807.969788,381.132324 809.337158,381.642120 
	C809.368958,381.937286 809.400818,382.232452 809.432678,382.527588 
	C807.274292,382.711792 805.115967,382.895996 802.485352,383.120514 
	C802.000183,377.929596 801.556763,373.185516 801.192444,368.059448 
	C806.898804,369.834686 812.526062,371.991882 818.225342,374.475006 
	C818.175293,375.022034 818.053162,375.243134 817.930969,375.464233 
	C818.322632,375.176971 818.714355,374.889771 819.106079,374.602539 
z"/>
<path fill="#FDFAFD" opacity="1.000000" stroke="none" 
	d="
M879.975403,312.911102 
	C877.303589,304.622742 872.920105,297.246857 866.947876,290.386475 
	C868.028442,290.033661 869.184387,290.032898 870.339050,289.994843 
	C877.708679,289.752075 877.861511,289.727631 878.931885,297.251282 
	C879.657654,302.352081 879.879272,307.524597 879.975403,312.911102 
z"/>
<path fill="#FEFDFE" opacity="1.000000" stroke="none" 
	d="
M600.976746,368.008545 
	C599.425598,368.488007 597.874451,368.967407 595.460876,369.713348 
	C598.865417,374.289429 603.582214,378.466675 599.053040,384.664062 
	C597.934998,384.997955 596.865173,384.998322 595.393982,384.996918 
	C596.757935,378.366547 596.672729,378.266388 586.815247,376.197662 
	C588.888245,375.322601 590.342163,374.708862 591.907837,373.771118 
	C592.019531,373.447083 592.138550,373.135529 592.629700,372.969940 
	C593.416870,371.425598 593.363403,369.811432 594.094604,368.725861 
	C595.076599,367.268066 596.664795,366.218658 598.327148,364.998932 
	C599.107300,365.001007 599.552979,364.998108 599.998718,364.995178 
	C600.354004,365.378296 600.709229,365.761444 601.051880,366.742523 
	C601.018433,367.563202 600.997559,367.785889 600.976746,368.008545 
z"/>
<path fill="#E3FBF5" opacity="1.000000" stroke="none" 
	d="
M784.906250,339.943115 
	C786.412781,343.736237 787.607666,348.135010 789.353821,352.302765 
	C790.530334,355.110901 792.485413,357.592834 793.878357,360.719910 
	C792.770752,361.251709 791.496948,361.674713 791.054260,361.243866 
	C789.708496,359.933990 788.683716,358.294312 787.373474,356.572174 
	C783.199585,362.703705 788.728210,363.554810 790.986572,365.997559 
	C790.137451,366.835785 789.288269,367.674011 788.171997,367.908264 
	C786.938965,366.870239 785.973022,366.436218 785.007141,366.002197 
	C784.947876,357.484955 784.888550,348.967682 784.906250,339.943115 
z"/>
<path fill="#E3FBF5" opacity="1.000000" stroke="none" 
	d="
M682.901978,229.762360 
	C675.736267,219.833420 666.030701,213.489655 653.384888,210.948486 
	C657.549255,211.412231 662.417358,211.173920 666.507080,212.842819 
	C671.101990,214.717865 674.956848,218.372604 679.213684,221.129562 
	C680.569214,222.007477 682.180481,222.490387 683.299194,222.987244 
	C683.182190,225.155457 683.067993,227.271591 682.901978,229.762360 
z"/>
<path fill="#FBE2D6" opacity="1.000000" stroke="none" 
	d="
M376.695312,229.200989 
	C370.938812,221.148071 363.396179,215.228867 353.258789,212.208771 
	C359.550446,210.359161 364.714325,214.672745 369.913788,216.964508 
	C373.572632,218.577225 377.992462,222.813995 376.695312,229.200989 
z"/>
<path fill="#E3FBF5" opacity="1.000000" stroke="none" 
	d="
M784.817749,211.860504 
	C772.155212,212.274155 759.425598,212.348373 746.340332,212.643768 
	C745.867737,210.135742 747.034424,209.008881 749.890198,209.114212 
	C760.339539,209.499557 770.796997,209.663895 781.246338,210.049332 
	C782.430969,210.093018 783.583374,211.009369 784.817749,211.860504 
z"/>
<path fill="#C4F6DF" opacity="1.000000" stroke="none" 
	d="
M286.902344,211.762939 
	C274.553497,212.116409 262.250732,212.078140 249.485382,211.985718 
	C250.134171,211.069351 251.233994,209.476288 252.358673,209.458542 
	C263.045898,209.289948 273.737976,209.344467 284.426392,209.495178 
	C285.275726,209.507172 286.108154,210.717682 286.902344,211.762939 
z"/>
<path fill="#E3FBF5" opacity="1.000000" stroke="none" 
	d="
M594.411987,249.028656 
	C595.128052,241.921616 595.084351,234.123062 597.453796,227.143814 
	C598.672180,223.554962 600.838196,218.220535 606.665100,217.121887 
	C607.454285,216.983322 607.918579,216.995605 608.730347,217.036789 
	C599.100159,225.243713 595.248169,236.217255 594.411987,249.028656 
z"/>
<path fill="#FDFAFD" opacity="1.000000" stroke="none" 
	d="
M791.382080,366.009033 
	C788.728210,363.554810 783.199585,362.703705 787.373474,356.572174 
	C788.683716,358.294312 789.708496,359.933990 791.054260,361.243866 
	C791.496948,361.674713 792.770752,361.251709 793.963196,361.063538 
	C796.529785,362.970062 798.797729,365.032196 801.179138,367.412964 
	C798.120972,367.161224 794.949280,366.590881 791.382080,366.009033 
z"/>
<path fill="#E9F0E5" opacity="1.000000" stroke="none" 
	d="
M288.654236,237.934128 
	C288.267303,240.302765 287.880371,242.671402 287.305939,245.299805 
	C287.020386,234.706741 286.922302,223.853928 286.855865,212.539185 
	C288.342987,213.669159 289.798431,215.261047 291.501740,217.123993 
	C285.924042,221.464050 288.621765,227.123795 288.023926,232.993134 
	C288.241943,235.191742 288.448090,236.562943 288.654236,237.934128 
z"/>
<path fill="#FCDFD8" opacity="1.000000" stroke="none" 
	d="
M301.882935,218.798615 
	C298.701477,222.840439 295.365417,226.551865 291.753265,230.459961 
	C290.515747,224.968399 296.074615,222.286591 297.627106,217.728271 
	C297.693939,217.532089 300.303345,218.201859 301.882935,218.798615 
z"/>
<path fill="#FBE2D6" opacity="1.000000" stroke="none" 
	d="
M382.089539,248.413086 
	C380.234009,242.804932 378.502777,236.829117 376.766357,230.469910 
	C383.229492,231.053528 379.993225,236.463165 381.360504,240.050125 
	C382.013092,238.686371 382.609009,237.441025 383.539001,236.119690 
	C383.319946,240.044296 382.766907,244.044861 382.089539,248.413086 
z"/>
<path fill="#77E4B0" opacity="1.000000" stroke="none" 
	d="
M727.037964,211.697098 
	C715.043152,212.008621 703.054565,212.109665 690.573486,211.932465 
	C690.080994,211.654221 690.070068,211.218933 690.070068,211.218933 
	C691.437744,211.171448 692.805481,211.123978 694.835083,211.070435 
	C695.666748,211.040909 695.836426,211.017441 696.006165,210.993973 
	C705.030334,211.041687 714.054443,211.089386 723.914673,211.152603 
	C725.489746,211.136230 726.228699,211.104355 726.967712,211.072479 
	C726.967712,211.072479 727.044067,211.486618 727.037964,211.697098 
z"/>
<path fill="#FBF9F2" opacity="1.000000" stroke="none" 
	d="
M618.978516,212.822083 
	C618.589844,212.924469 618.201172,213.026840 617.056152,213.074722 
	C614.212036,213.016327 612.124329,213.012436 610.036621,213.008545 
	C610.468323,212.128571 610.764771,210.603180 611.355042,210.479523 
	C614.020020,209.921158 616.768127,209.759537 619.622681,210.018677 
	C619.498840,211.328949 619.238708,212.075516 618.978516,212.822083 
z"/>
<path fill="#FCDFD8" opacity="1.000000" stroke="none" 
	d="
M316.786652,211.815903 
	C313.282318,213.754456 309.531067,215.395554 305.413269,217.060913 
	C306.626678,212.432358 310.453827,210.578659 316.786652,211.815903 
z"/>
<path fill="#E3FBF5" opacity="1.000000" stroke="none" 
	d="
M787.158447,235.027649 
	C786.594543,237.321198 786.030579,239.614761 785.223694,242.232605 
	C784.926147,235.675323 784.871643,228.793762 784.933167,221.455429 
	C785.771301,224.948532 786.493408,228.898422 787.469971,233.160431 
	C787.724365,233.472580 787.688599,233.449600 787.351807,233.386597 
	C787.062866,233.891602 787.110657,234.459625 787.158447,235.027649 
z"/>
<path fill="#E3FBF5" opacity="1.000000" stroke="none" 
	d="
M609.994995,213.358810 
	C612.124329,213.012436 614.212036,213.016327 616.752808,213.062012 
	C614.726013,214.405090 612.246094,215.706360 609.413391,217.047302 
	C609.358154,215.960999 609.655762,214.835037 609.994995,213.358810 
z"/>
<path fill="#E3FBF5" opacity="1.000000" stroke="none" 
	d="
M635.740479,209.696960 
	C633.616394,210.295288 631.233276,210.618958 628.429199,210.879929 
	C630.499390,210.352249 632.990417,209.887268 635.740479,209.696960 
z"/>
<path fill="#E3FBF5" opacity="1.000000" stroke="none" 
	d="
M619.343140,212.855927 
	C619.238708,212.075516 619.498840,211.328949 619.877930,210.305954 
	C621.511658,210.180023 623.026489,210.330536 624.783081,210.772491 
	C623.252502,211.672546 621.480103,212.281158 619.343140,212.855927 
z"/>
<path fill="#FCDFD8" opacity="1.000000" stroke="none" 
	d="
M288.820068,237.614990 
	C288.448090,236.562943 288.241943,235.191742 288.037628,233.462738 
	C288.845398,232.620911 289.651367,232.136902 290.672394,231.795624 
	C290.253601,233.724167 289.619751,235.510010 288.820068,237.614990 
z"/>
<path fill="#E3FBF5" opacity="1.000000" stroke="none" 
	d="
M690.008423,210.863617 
	C690.070068,211.218933 690.080994,211.654221 690.117920,211.868805 
	C690.154785,212.083389 690.108582,212.105942 689.812500,212.039673 
	C689.327637,211.979172 689.138794,211.984970 688.950012,211.990753 
	C688.428406,211.232758 687.906860,210.474762 687.385315,209.716736 
	C688.239136,209.980591 689.093018,210.244431 690.008423,210.863617 
z"/>
<path fill="#E3FBF5" opacity="1.000000" stroke="none" 
	d="
M650.944092,210.235214 
	C649.879700,210.496948 648.710938,210.462402 647.268555,210.204926 
	C648.276611,209.967636 649.558167,209.953278 650.944092,210.235214 
z"/>
<path fill="#E3FBF5" opacity="1.000000" stroke="none" 
	d="
M688.979492,370.709778 
	C688.560730,371.642822 688.104370,372.272766 687.327515,372.919708 
	C687.016541,371.869110 687.026001,370.801483 687.145996,369.346771 
	C687.818298,369.441986 688.380127,369.924316 688.979492,370.709778 
z"/>
<path fill="#FDFAFD" opacity="1.000000" stroke="none" 
	d="
M784.921387,366.331177 
	C785.973022,366.436218 786.938965,366.870239 787.957886,367.649078 
	C787.515930,368.256958 787.020813,368.520050 786.156860,368.671906 
	C785.593018,368.281128 785.331787,368.093781 785.004395,367.998688 
	C784.948120,367.552521 784.891907,367.106323 784.921387,366.331177 
z"/>
<path fill="#E3FBF5" opacity="1.000000" stroke="none" 
	d="
M785.440796,214.961334 
	C784.998779,214.301483 784.889404,213.581772 784.797729,212.496323 
	C787.177551,212.347885 787.568787,213.246643 785.440796,214.961334 
z"/>
<path fill="#E3FBF5" opacity="1.000000" stroke="none" 
	d="
M726.934082,210.729416 
	C726.228699,211.104355 725.489746,211.136230 724.383545,211.120239 
	C724.483704,208.766846 725.407898,208.381927 726.934082,210.729416 
z"/>
<path fill="#77E4B0" opacity="1.000000" stroke="none" 
	d="
M688.927002,212.423264 
	C689.138794,211.984970 689.327637,211.979172 689.788940,212.049957 
	C689.959473,213.597214 689.857483,215.067902 689.540405,216.833313 
	C689.184814,215.703949 689.044373,214.279861 688.927002,212.423264 
z"/>
<path fill="#E3FBF5" opacity="1.000000" stroke="none" 
	d="
M784.898560,368.401062 
	C785.331787,368.093781 785.593018,368.281128 785.897705,368.779724 
	C785.831726,370.183746 785.656189,371.368744 785.178589,372.752136 
	C784.848633,371.568207 784.820679,370.185852 784.898560,368.401062 
z"/>
<path fill="#E3FBF5" opacity="1.000000" stroke="none" 
	d="
M644.751221,209.642212 
	C643.602356,209.949585 642.215637,210.007355 640.421753,209.970840 
	C641.514099,209.715225 643.013794,209.553909 644.751221,209.642212 
z"/>
<path fill="#FCDFD8" opacity="1.000000" stroke="none" 
	d="
M320.815369,211.009033 
	C320.595337,211.302338 320.089294,211.544113 319.301880,211.713043 
	C319.523468,211.412643 320.026398,211.185089 320.815369,211.009033 
z"/>
<path fill="#FDFAFD" opacity="1.000000" stroke="none" 
	d="
M880.490356,340.680298 
	C880.311768,340.270325 880.349487,339.608002 880.622070,338.694214 
	C880.806824,339.104462 880.756714,339.766205 880.490356,340.680298 
z"/>
<path fill="#E3FBF5" opacity="1.000000" stroke="none" 
	d="
M695.992065,210.742004 
	C695.836426,211.017441 695.666748,211.040909 695.243286,211.022980 
	C695.160217,210.550858 695.330872,210.120148 695.501587,209.689423 
	C695.660400,209.956299 695.819214,210.223160 695.992065,210.742004 
z"/>
<path fill="#FDFAFD" opacity="1.000000" stroke="none" 
	d="
M880.893494,318.172607 
	C880.631592,317.904694 880.403503,317.309448 880.247681,316.395386 
	C880.522400,316.666107 880.724854,317.255707 880.893494,318.172607 
z"/>
<path fill="#FBE2D6" opacity="1.000000" stroke="none" 
	d="
M349.749390,211.182114 
	C349.905396,211.295670 349.542969,211.514389 349.542969,211.514389 
	C349.542969,211.514389 349.131165,211.416077 348.985657,211.261505 
	C349.085388,210.979385 349.336456,210.966583 349.749390,211.182114 
z"/>
<path fill="#FBF9F2" opacity="1.000000" stroke="none" 
	d="
M614.046631,281.128967 
	C603.605164,286.192352 597.146240,294.492645 593.656494,305.878296 
	C592.908447,306.113007 592.654785,306.077423 592.401123,306.041840 
	C592.423645,305.588715 592.446167,305.135590 592.662476,303.967346 
	C592.756653,302.180847 592.656982,301.109467 592.557373,300.038055 
	C592.549072,298.946564 592.540771,297.855103 592.703003,295.925415 
	C592.774597,289.079254 592.675720,283.071259 592.576904,277.063263 
	C592.568909,273.991913 592.560974,270.920593 592.719238,266.985168 
	C592.772827,264.093170 592.660156,262.065247 592.547485,260.037354 
	C592.546570,259.858154 592.545593,259.678925 592.957886,259.258911 
	C593.780518,259.055878 594.189819,259.093628 594.599121,259.131409 
	C594.599121,259.131409 594.826355,259.143646 595.022888,259.599609 
	C595.775635,260.354675 596.330261,260.911377 596.888306,260.914764 
	C607.643250,260.979980 618.399109,261.030121 629.152832,260.906921 
	C630.089722,260.896210 631.012634,259.656891 631.942017,258.988251 
	C631.942017,258.988251 631.965698,258.969025 632.347473,258.971497 
	C633.351501,258.428467 634.457275,257.933533 634.520630,257.329468 
	C635.093079,251.862610 635.483276,246.376648 635.926880,240.896286 
	C635.926880,240.896286 636.009766,240.964340 636.381958,240.976349 
	C639.266907,241.191971 641.779724,241.395569 644.292480,241.599167 
	C644.292480,241.599167 644.288269,241.659912 644.302612,241.973267 
	C644.630188,242.450211 644.943420,242.613815 645.256714,242.777435 
	C645.256714,242.777435 645.273438,242.758087 645.186279,243.179169 
	C645.731934,248.498932 646.624329,253.384857 646.866028,258.302765 
	C646.958984,260.193634 645.570312,262.157318 645.204651,263.146637 
	C643.436890,266.209961 642.800659,268.999390 641.209717,269.741302 
	C637.065613,271.673706 632.412537,272.480499 628.136780,274.175842 
	C624.955139,275.437378 622.045715,277.385773 619.015015,279.028259 
	C619.015015,279.028229 618.728394,279.207672 618.172241,279.139587 
	C616.426270,279.757355 615.236450,280.443176 614.046631,281.128967 
z"/>
<path fill="#F16702" opacity="1.000000" stroke="none" 
	d="
M556.004883,293.000000 
	C556.004395,280.347839 555.891541,268.193848 556.091919,256.045013 
	C556.135559,253.401566 557.300903,250.776611 557.949646,248.143143 
	C558.483093,248.267242 559.016602,248.391357 559.550049,248.515457 
	C559.366699,251.024033 559.026062,253.532471 559.023682,256.041229 
	C558.989868,291.831787 558.999207,327.622345 559.004944,363.412933 
	C559.005859,369.162628 559.670410,369.837372 565.628601,369.984131 
	C568.524780,370.055450 571.424255,369.996460 574.301086,370.768951 
	C568.600159,372.618073 562.879883,372.242859 557.385620,370.278595 
	C556.463440,369.948883 556.066956,367.100616 556.061096,365.413910 
	C555.978271,341.442810 556.004761,317.471375 556.004883,293.000000 
z"/>
<path fill="#F16702" opacity="1.000000" stroke="none" 
	d="
M578.997559,286.998474 
	C578.997742,278.012329 578.895081,269.523438 579.085693,261.041138 
	C579.123413,259.363922 580.288757,257.712067 580.934143,256.048492 
	C581.605469,256.199249 582.276794,256.350006 582.948120,256.500763 
	C582.948120,273.544159 582.948120,290.587524 582.948120,307.547729 
	C578.997559,305.640533 578.997559,305.640533 578.997559,286.998474 
z"/>
<path fill="#F16702" opacity="1.000000" stroke="none" 
	d="
M583.002441,327.176178 
	C583.002441,325.005829 583.002441,323.291473 583.002441,321.577148 
	C583.600159,321.518036 584.197815,321.458923 584.795532,321.399811 
	C586.994080,324.282043 585.980530,327.887787 585.745422,331.181183 
	C584.936462,342.513733 583.833130,353.825928 583.095886,365.162354 
	C582.970459,367.091217 584.094299,369.101318 584.700256,371.287567 
	C581.180054,372.881653 579.022949,371.440186 579.135742,367.943634 
	C579.318665,362.273041 580.225708,356.625732 580.828552,350.968781 
	C580.846069,350.804474 580.890259,350.642883 580.905334,350.478485 
	C581.605530,342.863159 582.303833,335.247681 583.002441,327.176178 
z"/>
<path fill="#F16702" opacity="1.000000" stroke="none" 
	d="
M586.161377,224.849106 
	C587.165344,229.202362 588.057495,233.636459 589.075623,238.696487 
	C587.651855,238.178207 586.826111,237.877625 585.267456,237.310242 
	C584.218933,241.718094 583.190735,246.040497 582.102173,250.616806 
	C578.235901,249.494949 578.704956,246.223953 579.197144,243.472412 
	C579.618958,241.114288 581.176392,238.982635 581.867615,236.643280 
	C582.664612,233.945602 582.959290,231.102692 583.680237,228.377914 
	C584.003967,227.154282 584.833374,226.064423 585.830139,224.816025 
	C586.226990,224.718170 586.049683,224.929947 586.161377,224.849106 
z"/>
<path fill="#B8B9AF" opacity="1.000000" stroke="none" 
	d="
M592.232910,306.394348 
	C592.654785,306.077423 592.908447,306.113007 593.534424,306.244141 
	C593.913757,319.925385 593.920776,333.511078 593.637939,347.772217 
	C593.275635,349.628082 593.203186,350.808472 593.077576,352.445709 
	C592.962341,356.255402 592.900208,359.608215 592.838013,362.961060 
	C592.579834,362.047363 592.098694,361.134216 592.096375,360.219879 
	C592.052429,342.395630 592.064270,324.571198 592.232910,306.394348 
z"/>
<path fill="#FBF9F2" opacity="1.000000" stroke="none" 
	d="
M592.738342,363.366089 
	C592.900208,359.608215 592.962341,356.255402 593.319641,352.713593 
	C594.710449,354.679413 595.806030,356.834198 596.901611,358.988983 
	C596.901611,358.988983 597.126465,359.307007 597.083801,359.900635 
	C597.358337,361.994171 597.675537,363.494019 597.992737,364.993896 
	C596.664795,366.218658 595.076599,367.268066 594.094604,368.725861 
	C593.363403,369.811432 593.416870,371.425598 592.796448,372.965210 
	C592.527527,370.007751 592.583069,366.889435 592.738342,363.366089 
z"/>
<path fill="#F16702" opacity="1.000000" stroke="none" 
	d="
M578.989868,227.126602 
	C579.697510,227.362152 580.745667,228.026688 580.650879,228.403534 
	C580.060486,230.749298 579.213928,233.030594 578.451233,235.332886 
	C575.065857,232.597778 575.096558,231.906921 578.989868,227.126602 
z"/>
<path fill="#B8B9AF" opacity="1.000000" stroke="none" 
	d="
M592.387695,277.405518 
	C592.675720,283.071259 592.774597,289.079254 592.717651,295.516296 
	C592.440796,289.879456 592.319641,283.813599 592.387695,277.405518 
z"/>
<path fill="#F16702" opacity="1.000000" stroke="none" 
	d="
M579.664185,223.032257 
	C578.636108,221.914810 577.873108,220.976807 577.110107,220.038803 
	C579.467773,220.041718 582.241943,219.758438 579.664185,223.032257 
z"/>
<path fill="#B8B9AF" opacity="1.000000" stroke="none" 
	d="
M592.002808,241.491684 
	C592.321594,243.469559 592.557495,245.880264 592.613525,248.602890 
	C592.262451,246.584717 592.091187,244.254608 592.002808,241.491684 
z"/>
<path fill="#B8B9AF" opacity="1.000000" stroke="none" 
	d="
M592.378052,260.341431 
	C592.660156,262.065247 592.772827,264.093170 592.732727,266.524841 
	C592.456238,264.834259 592.332458,262.739899 592.378052,260.341431 
z"/>
<path fill="#B8B9AF" opacity="1.000000" stroke="none" 
	d="
M592.313171,252.444962 
	C592.662109,253.187103 592.851868,254.282440 593.018616,256.081329 
	C592.837402,257.241119 592.679260,257.697327 592.521118,258.153534 
	C592.398804,256.368408 592.276428,254.583298 592.313171,252.444962 
z"/>
<path fill="#E3FBF5" opacity="1.000000" stroke="none" 
	d="
M592.521790,258.381042 
	C592.679260,257.697327 592.837402,257.241119 593.067871,256.426208 
	C593.306458,256.046112 593.472595,256.024658 593.890137,255.992325 
	C594.326660,256.811676 594.511780,257.641907 594.648071,258.801758 
	C594.189819,259.093628 593.780518,259.055878 593.060547,259.010437 
	C592.749878,259.002716 592.522461,258.608582 592.521790,258.381042 
z"/>
<path fill="#B8B9AF" opacity="1.000000" stroke="none" 
	d="
M592.386841,300.279846 
	C592.656982,301.109467 592.756653,302.180847 592.699951,303.629028 
	C592.434570,302.844391 592.325439,301.683044 592.386841,300.279846 
z"/>
<path fill="#FCF6F5" opacity="1.000000" stroke="none" 
	d="
M785.580566,262.104919 
	C787.835754,273.403625 794.572815,281.810455 803.305847,288.826630 
	C811.992249,295.805328 820.835083,302.590546 829.655518,309.400726 
	C838.307861,316.081146 842.043823,324.853973 840.709229,335.645630 
	C839.747314,343.423737 834.035156,347.164581 828.423340,343.360352 
	C826.088440,341.777588 824.213013,338.093750 823.932129,335.190796 
	C823.279724,328.449005 823.724365,321.601044 823.724365,313.960693 
	C810.613403,313.960693 798.377502,313.960693 785.694153,313.990631 
	C785.091553,305.902924 784.817444,297.785309 784.813049,289.667572 
	C784.808228,280.545319 785.046936,271.422882 785.580566,262.104919 
z"/>
<path fill="#77E4B0" opacity="1.000000" stroke="none" 
	d="
M690.038330,341.624207 
	C689.753174,341.125977 689.558044,340.239136 689.551514,339.127258 
	C689.869507,339.680023 689.998901,340.457825 690.038330,341.624207 
z"/>
<path fill="#77E4B0" opacity="1.000000" stroke="none" 
	d="
M689.721313,336.928436 
	C689.471252,336.858612 689.329834,336.558014 689.313110,336.027466 
	C689.568542,336.097595 689.699219,336.397644 689.721313,336.928436 
z"/>
<path fill="#FCF7F5" opacity="1.000000" stroke="none" 
	d="
M287.080688,255.614960 
	C288.685455,261.220154 289.126862,267.943024 292.157410,273.162506 
	C295.725952,279.308502 301.081268,284.669830 306.486176,289.436707 
	C314.321259,296.346893 322.877960,302.441742 331.159149,308.842529 
	C339.845612,315.556549 344.078918,324.183319 342.895538,335.293671 
	C342.073944,343.007202 336.642700,347.128265 330.885834,343.534088 
	C328.425629,341.998138 326.880981,338.170624 326.046722,335.080353 
	C325.159851,331.795166 325.557495,328.150787 325.486664,324.661377 
	C325.419586,321.356750 325.472229,318.049683 325.472229,313.941833 
	C312.694397,313.941833 300.464996,313.941833 287.793732,313.935333 
	C287.187866,306.298553 286.908936,298.668610 286.886536,291.037903 
	C286.852295,279.381348 286.995209,267.724274 287.080688,255.614960 
z"/>
<path fill="#C4F6DF" opacity="1.000000" stroke="none" 
	d="
M191.562042,317.845825 
	C191.299728,316.053070 191.166153,313.972839 191.389801,311.634949 
	C191.728271,313.437622 191.709518,315.497955 191.562042,317.845825 
z"/>
<path fill="#F9FAF9" opacity="1.000000" stroke="none" 
	d="
M380.812286,309.446198 
	C376.188812,296.847443 367.147125,287.523529 356.463104,279.546906 
	C348.594299,273.672089 340.644409,267.905945 332.730042,262.092194 
	C327.747955,258.432465 325.614929,253.468170 326.060944,247.365860 
	C326.367340,243.173813 328.460205,240.573257 332.808105,240.089478 
	C337.152557,239.606079 340.063171,241.614670 340.920837,245.711746 
	C341.861542,250.205414 342.124573,254.840927 342.740967,259.890228 
	C355.463776,259.890228 368.229828,259.890228 381.457703,259.838623 
	C392.737335,259.763763 403.558197,259.585510 414.371368,259.797668 
	C418.390259,259.876556 420.069244,258.884399 419.814240,254.538696 
	C419.614105,251.128189 419.812195,247.375580 421.098206,244.304626 
	C422.009949,242.127380 424.970337,239.597916 427.127838,239.491730 
	C429.298370,239.384888 433.077545,241.697983 433.578033,243.620651 
	C435.053741,249.289825 435.046295,255.325348 436.012451,261.152283 
	C437.024323,267.254791 434.359222,270.052856 428.691589,271.654449 
	C421.672180,273.638000 414.916229,276.533356 407.961914,278.772095 
	C392.967194,283.599304 383.974762,293.661896 380.812286,309.446198 
z"/>
<path fill="#F3FCFC" opacity="1.000000" stroke="none" 
	d="
M419.107452,305.545532 
	C420.916382,296.238220 426.384003,290.904541 435.364227,288.119843 
	C435.568848,289.691101 435.862793,290.909149 435.865356,292.127777 
	C435.893677,305.603058 435.961517,319.079407 435.802124,332.552917 
	C435.769470,335.313843 435.516510,338.492065 434.124329,340.693146 
	C432.856934,342.696899 429.925873,344.695099 427.687378,344.741791 
	C425.472656,344.787994 422.505402,342.877869 421.152222,340.932648 
	C419.667755,338.798645 419.152649,335.655945 419.085876,332.931458 
	C418.865845,323.954315 419.039551,314.967590 419.107452,305.545532 
z"/>
<path fill="#F3FCFC" opacity="1.000000" stroke="none" 
	d="
M632.699829,340.039795 
	C632.397522,327.302673 631.333130,314.846558 632.447449,302.588501 
	C633.139587,294.974670 639.629883,290.400391 648.068665,288.084259 
	C648.068665,290.909058 648.068787,293.162384 648.068665,295.415710 
	C648.068115,308.377380 648.169312,321.340179 648.027771,334.300323 
	C647.945618,341.827118 644.828064,345.766052 639.321716,344.870392 
	C636.986877,344.490662 635.002136,341.958466 632.699829,340.039795 
z"/>
<path fill="#E3FBF5" opacity="1.000000" stroke="none" 
	d="
M653.376831,375.833252 
	C651.590027,375.680481 650.162903,375.369080 648.238647,374.713043 
	C647.167908,373.246796 646.594360,372.125183 646.020874,371.003571 
	C643.963501,367.110077 642.910706,370.568146 641.257996,371.802826 
	C640.119446,371.964417 639.251587,371.940521 637.949280,371.848633 
	C641.285583,367.073395 645.056274,362.366150 648.972290,357.477631 
	C648.972290,361.235870 649.087524,365.386108 648.932312,369.526184 
	C648.826477,372.349182 649.967773,373.301178 652.717834,373.269531 
	C663.814514,373.141785 674.912781,373.155914 686.469971,373.082031 
	C685.375854,373.699188 683.833618,374.882904 682.266663,374.916656 
	C673.550781,375.104156 664.828796,374.995819 656.109253,375.045349 
	C655.317200,375.049835 654.527466,375.455353 653.376831,375.833252 
z"/>
<path fill="#E3FBF5" opacity="1.000000" stroke="none" 
	d="
M619.390625,279.008301 
	C622.045715,277.385773 624.955139,275.437378 628.136780,274.175842 
	C632.412537,272.480499 637.065613,271.673706 641.209717,269.741302 
	C642.800659,268.999390 643.436890,266.209961 645.204651,263.146637 
	C645.570312,262.157318 646.958984,260.193634 646.866028,258.302765 
	C646.624329,253.384857 645.731934,248.498932 645.197754,243.173477 
	C646.410950,245.749146 648.208984,248.681335 648.526123,251.765762 
	C650.237366,268.411835 649.970215,268.593536 634.317810,273.786560 
	C629.429932,275.408173 624.614685,277.248291 619.390625,279.008301 
z"/>
<path fill="#E3FBF5" opacity="1.000000" stroke="none" 
	d="
M601.023621,368.356537 
	C600.997559,367.785889 601.018433,367.563202 601.099121,367.009216 
	C611.785278,375.433533 623.381104,377.880798 636.617188,372.023682 
	C635.832336,377.788147 631.083008,376.710968 627.185669,376.909882 
	C622.969604,377.125092 618.580872,377.619415 614.542480,376.735504 
	C609.365845,375.602478 603.987305,373.995667 601.023621,368.356537 
z"/>
<path fill="#E3FBF5" opacity="1.000000" stroke="none" 
	d="
M631.479248,259.013306 
	C631.012634,259.656891 630.089722,260.896210 629.152832,260.906921 
	C618.399109,261.030121 607.643250,260.979980 596.888306,260.914764 
	C596.330261,260.911377 595.775635,260.354675 595.075500,259.700470 
	C606.959839,259.243042 618.988159,259.140717 631.479248,259.013306 
z"/>
<path fill="#E3FBF5" opacity="1.000000" stroke="none" 
	d="
M635.577637,240.975189 
	C635.483276,246.376648 635.093079,251.862610 634.520630,257.329468 
	C634.457275,257.933533 633.351501,258.428467 632.353760,258.957642 
	C632.517578,252.880005 630.048828,246.272186 635.577637,240.975189 
z"/>
<path fill="#E3FBF5" opacity="1.000000" stroke="none" 
	d="
M644.162109,241.285202 
	C641.779724,241.395569 639.266907,241.191971 636.332642,240.955627 
	C638.636963,237.751450 641.336914,238.933517 644.162109,241.285202 
z"/>
<path fill="#E8FAFD" opacity="1.000000" stroke="none" 
	d="
M596.887695,358.632263 
	C595.806030,356.834198 594.710449,354.679413 593.372742,352.256744 
	C593.203186,350.808472 593.275635,349.628082 593.610657,348.205505 
	C593.873169,347.963287 593.936829,348.075500 593.952026,348.478760 
	C594.318970,350.198151 594.670776,351.514221 595.022583,352.830322 
	C595.639648,354.645386 596.256714,356.460449 596.887695,358.632263 
z"/>
<path fill="#E8FAFD" opacity="1.000000" stroke="none" 
	d="
M598.327148,364.998901 
	C597.675537,363.494019 597.358337,361.994171 597.091492,360.095245 
	C598.068604,361.237488 598.995361,362.778748 599.960449,364.657593 
	C599.552979,364.998108 599.107300,365.001007 598.327148,364.998901 
z"/>
<path fill="#E3FBF5" opacity="1.000000" stroke="none" 
	d="
M614.394775,281.110809 
	C615.236450,280.443176 616.426270,279.757355 618.003418,279.129974 
	C617.174805,279.823181 615.958862,280.457916 614.394775,281.110809 
z"/>
<path fill="#B8B9AF" opacity="1.000000" stroke="none" 
	d="
M595.218201,352.619812 
	C594.670776,351.514221 594.318970,350.198151 593.954651,348.543274 
	C594.432678,349.606079 594.923218,351.007660 595.218201,352.619812 
z"/>
<path fill="#E3FBF5" opacity="1.000000" stroke="none" 
	d="
M645.207092,242.516464 
	C644.943420,242.613815 644.630188,242.450211 644.307556,242.003296 
	C644.584656,241.898483 644.871033,242.076996 645.207092,242.516464 
z"/>
<path fill="#FFFFFF" opacity="1.000000" stroke="none" 
	d="
M819.039429,374.585999 
	C818.714355,374.889771 818.322632,375.176971 817.930969,375.464233 
	C818.053162,375.243134 818.175293,375.022034 818.566467,374.683838 
	C818.835510,374.566742 818.972839,374.569458 819.039429,374.585999 
z"/>
<path fill="#FFFFFF" opacity="1.000000" stroke="none" 
	d="
M787.358154,234.812408 
	C787.110657,234.459625 787.062866,233.891602 787.335449,233.397583 
	C787.623108,233.846786 787.590454,234.221985 787.358154,234.812408 
z"/>
<path fill="#FEFFFD" opacity="1.000000" stroke="none" 
	d="
M540.000000,354.998779 
	C540.332520,353.104736 540.950684,351.211273 540.954712,349.316528 
	C541.016479,320.673492 540.997498,292.030304 540.997498,263.387146 
	C540.997498,261.575714 540.997559,259.764282 540.997559,257.693329 
	C543.006409,257.257629 544.718689,256.886230 546.688477,256.458984 
	C546.505066,254.507523 546.329346,252.637909 546.114136,250.348358 
	C550.725586,251.218567 552.135864,253.350723 552.110046,257.805176 
	C551.907166,292.775299 552.016785,327.747162 551.947754,362.718323 
	C551.943848,364.725647 551.817993,367.958191 550.714111,368.495850 
	C547.985168,369.824921 544.525818,372.024841 541.695190,368.164215 
	C541.559631,367.979340 541.061890,368.059998 540.366455,367.545776 
	C540.000000,363.049316 540.000000,359.024048 540.000000,354.998779 
z"/>
<path fill="#FDFFFD" opacity="1.000000" stroke="none" 
	d="
M539.703674,354.704437 
	C540.000000,359.024048 540.000000,363.049316 540.000000,367.537903 
	C536.039795,368.183899 537.038330,365.220398 537.035278,363.110657 
	C536.994507,334.975342 537.009277,306.839935 537.009705,278.704559 
	C537.009766,272.877716 536.993103,267.050781 537.017456,261.224030 
	C537.023804,259.700836 537.155029,258.178192 537.228882,256.655273 
	C537.713684,256.635956 538.198425,256.616638 538.683228,256.597290 
	C538.789612,258.258148 538.987793,259.918915 538.988831,261.579803 
	C539.007690,290.714050 538.995239,319.848328 539.019775,348.982574 
	C539.021301,350.791840 539.272400,352.600922 539.703674,354.704437 
z"/>
<path fill="#FDFFFD" opacity="1.000000" stroke="none" 
	d="
M538.988159,196.604309 
	C538.999146,200.796707 538.999146,204.563797 538.999146,208.330887 
	C538.375122,208.328568 537.751160,208.326233 537.127136,208.323914 
	C537.127136,204.072495 537.127136,199.821060 537.127136,195.569641 
	C537.743774,195.772766 538.360474,195.975891 538.988159,196.604309 
z"/>
<path fill="#FFFFFF" opacity="1.000000" stroke="none" 
	d="
M528.998779,378.999390 
	C529.407959,378.074646 529.818359,377.150513 530.228760,376.226440 
	C530.729919,376.500763 531.231079,376.775116 531.732239,377.049438 
	C531.068970,377.695007 530.405640,378.340576 529.372437,378.993683 
	C529.002441,379.001221 529.000000,379.000000 528.998779,378.999390 
z"/>
<path fill="#FFFFFF" opacity="1.000000" stroke="none" 
	d="
M235.665024,344.222961 
	C236.389877,343.480957 237.187927,342.744202 237.985962,342.007416 
	C238.247864,342.371979 238.509766,342.736572 238.771652,343.101166 
	C238.010376,343.445862 237.249084,343.790558 236.123428,344.254333 
	C235.759064,344.373383 235.738205,344.228149 235.665024,344.222961 
z"/>
<path fill="#FFFFFF" opacity="1.000000" stroke="none" 
	d="
M831.992126,259.008057 
	C827.297852,256.343384 832.166016,253.404800 830.974304,250.639816 
	C831.576172,250.646469 832.177979,250.653107 832.779846,250.659760 
	C832.521362,253.163757 832.262878,255.667740 832.002197,258.585876 
	C832.000000,259.000000 831.992126,259.008057 831.992126,259.008057 
z"/>
<path fill="#FFFFFF" opacity="1.000000" stroke="none" 
	d="
M834.702271,244.989731 
	C834.176025,246.517471 833.656677,247.697540 833.137329,248.877594 
	C832.417236,248.364685 831.697144,247.851761 830.977112,247.338852 
	C831.341980,245.787979 831.706909,244.237106 832.071777,242.686218 
	C832.950928,243.338165 833.830078,243.990112 834.702271,244.989731 
z"/>
<path fill="#FFFFFF" opacity="1.000000" stroke="none" 
	d="
M832.003906,258.996216 
	C832.146667,259.705475 832.285461,260.418549 832.133667,261.280701 
	C831.843079,261.429810 831.852478,261.346100 831.811768,261.356567 
	C831.834778,260.842712 831.898499,260.318390 831.977173,259.401062 
	C831.992126,259.008057 832.000000,259.000000 832.003906,258.996216 
z"/>
<path fill="#FBF9F2" opacity="1.000000" stroke="none" 
	d="
M645.653442,371.071228 
	C646.594360,372.125183 647.167908,373.246796 647.873291,374.667297 
	C647.111633,375.483643 646.218140,376.001099 645.324646,376.518494 
	C645.311768,374.725311 645.298889,372.932098 645.653442,371.071228 
z"/>
</svg>